<?xml version="1.0" encoding="UTF-8" standalone="no"?>
<svg width="1024" xmlns="http://www.w3.org/2000/svg" height="768">
 <g fill-rule="evenodd">
  <path id="svg_2" fill="#bf9994" stroke="#bf9994" d="m592 381q2-1 3 2t-3 3q-3 0-3-2t3-3z"/>
  <path id="svg_3" fill="#c38784" stroke="#c38784" d="m111 573l4-1v1h1v1h2l1 1h1v3l-2 1q-3 1-4 1h-2v-1h-1v-1h1l-2-1h-2v-1t-1 0v-1q1-1 4-2z"/>
  <path id="svg_4" fill="#cbb5b3" stroke="#cbb5b3" d="m615 240q0-1 4-1t4 1q0 2-4 2-3 0-4-2z"/>
  <path id="svg_5" fill="#a32d2c" stroke="#a32d2c" d="m277 466v-1h1q1 0 1 1t2 1h2l-1 1q0 1 0 2h1q1 1 1 2t-1 3l-1 2v1h-2q-2 0-2 0h-1q-1 0-2-2-2-2-3-2h-3v-1h1v-1l1-1q1-1 3-3 3-1 3-2z"/>
  <path id="svg_6" fill="#b21111" stroke="#b21111" d="m394 417h2t-1 1q0 0 1 1l1 1h1v1l2 1q2 2 2 1t2-1h1v1l-1 1v2q0 1-2 2-2 2-2 2v1h1v1h1v2q0 3 2 3 1 0 0-3-1-4 0-4 2 0 3-1t0-3q-1-3 1-2 2 0 5 1 3 0 3-1t-3-2l-3-2h4q5 0 7 2 3 1 3 0t4-1q4 1 5 1 1 1 2 2l-1 1q0 1-1 1t-1-1-2-1q-2 1-2 2 0 2-1 2t1 1 3 2 1 2v1l1 2q0 2 1 2 2 0 2 1h1l4 1q5 1 5 2t1 1v1h-1v3l1 1 1 2v1h1q0-1 1-1h1v2l-1 1v1h1l1 1q1 0 1 1 1 1 1 1 0 1 0 1h1l1 2q2 2 2 2v1q0 1 0 1h1q1 0 1 0v2h-1q-1-1-2 1v2l-1 3q-2 4-1 6v2l-1 1q0 1-1 2l-1 1v1l-1 1h-3q-2 0-3 0t-3-3q-1-3-4-3-2 0-3 2t-4 3l-3 1h-2v-1h-1v-1h-1v-1h-1v-1h-1v-2q0-2 1-3t2-4l1-3h-3v1l-1 1h-2v-2h-1v-1h1v-3h-2v1h-1v1h-1v3q-1 3-1 4h-1v1h-1v1h-1q-1 1-3 0-2 0-3 2-1 3-5 3l-4 1v-1q-1 0-1-3-1-3-2-3h-2q0-1-1-2 0-2-1-2t-1-4v-4q1 0 2 1t2 0q1-2 3-7 1-5 0-5-2-1-2-4-1-3-2-3t-1-2q-1-1-2-2l-2-2q-1-1-1-1v-1q0-1-1-1h-1t-1-2l-1-2v-5h1q1 0 1-1l1 1q1 0 1 2v1h1v-1h1v-1q0-1-1-5 0-4 3-5 2-1 4-2zm10 38q1-2 2-2t2 5q2 4-1 4-2 0-2 1t1 1q0 1-1 2-1 2-3-2-2-3-1-5 1-3 3-4z"/>
  <path id="svg_7" fill="#bd4343" stroke="#bd4343" d="m430 262v-1l2 1q2 2 4 2h1t1 1v1l-2 4q-2 3 0 3h1l1 1q2 0 2 2 0 1 1 1h1q0 1-2 0l-2-1h-5v1h-1v1l-1 2v2q-1 0-1-2v-1h-1v-1h-2v3h-1l-1-1h-1l1-1h1v-1q0-2 2-2t2-4v-4h-1v-1h-1v-2l1-1v-2q1 0 1 0z"/>
  <path id="svg_10" fill="#7d4142" stroke="#7d4142" d="m419 166h2v1h1v1 1h2l1 1h1v2 2h-1q-1 0-2 1h-1v-1t-1 0q-1-1-3-4l-2-2v-1q1-1 3-1z"/>
  <path id="svg_11" fill="#903e3f" stroke="#903e3f" d="m114 442l2-1q0 1 0 1h1l-1 2q0 2-1 2l-1 1h-2v-1t-1 0v-2q1-2 3-2z"/>
  <path id="svg_12" fill="#c54545" stroke="#c54545" d="m140 108l-1-2 3 1q3 1 6 0 2-1 4-1h1l2 3q2 3 3 3h1v1q0 1-2 2l-2 1h-1t0 1h-1q-1 1-1 1-1 0-5 0h-9v-1h1v-1h1t0-1q0 0 1-3t-1-4z"/>
  <path id="svg_14" fill="#a53e3b" stroke="#a53e3b" d="m561 380h1l2 2q3 2 4 2v1q0 1-6 1l-5-1v-1q-1 0-1 0v-1l2-1q2-2 3-2z"/>
  <path id="svg_15" fill="#b35756" stroke="#b35756" d="m99 244l-1-2h1q1 1 2 6 1 6 0 7 0 1-1 1h-1v-1q1-1 1-3 0-1-3-1-3-1-4-2l-1-1v-1q0-1 4-1t3-2z"/>
  <path id="svg_16" fill="#7b5a5b" stroke="#7b5a5b" d="m723 191q2-1 3 1 0 1 2 1 1 1 2 2 0 1-2 2t-2-1-2-2-2-1q0-2 1-2z"/>
  <path id="svg_18" fill="#c23535" stroke="#c23535" d="m209 365l-1 2q0 2-1 5-1 4-3 7t-2 3v1h-1v1h-1v2q-1 0-4-1-4-1-4-2v-2q0-1 0-3l-1-1q1 0 1-1t5-3q4-3 4-4v-2h3q3-1 4-1 0-1 1-1z"/>
  <path id="svg_19" fill="#b11e1f" stroke="#b11e1f" d="m389 583l-1-3h1q1 0 2 0h3t1 1v1h2q1 0 5 2 3 2 4 2h1v1q0 1 1 1v3l-1 2q-1 2-1 3v1h-1l-1 1t-2 0h-2v2h-2q-1-1-1 2l1 3v3h-2v-3l-1-3q-1-2-3-9t-3-10z"/>
  <path id="svg_21" fill="#993a3c" stroke="#993a3c" d="m451 522v2q-1 0-1 1-1 1-4 1t-4-2v-3l2-2q2-1 4 0t3 3z"/>
  <path id="svg_22" fill="#9d575b" stroke="#9d575b" d="m23 268v-2h7v3l-1 1q-1 0-2 1h-4v-1q-1 0 0-2z"/>
  <path id="svg_23" fill="#a13838" stroke="#a13838" d="m332 524v6q0 3-3 3-3-1-7-1-3 0-3-2 0-1-1-1l-2-1v-2h3v1h1v1l1-1q1 0 4-3 3-2 5-2 2 1 2 2z"/>
  <path id="svg_24" fill="#ab3b3c" stroke="#ab3b3c" d="m319 606h4q5 1 5 2t0 1q0 1-2 1h-2q0-1-1 0h-3q-2 0-2-2v-2t1 0z"/>
  <path id="svg_25" fill="#b72625" stroke="#b72625" d="m69 137l4-2 2 1q2 2 2 6 0 3-1 3-2 1-2 1h-1l-1 1-1 1h-1t-2-4l-1-3h-1-1v-1q1-1 4-3z"/>
  <path id="svg_26" fill="#ce8888" stroke="#ce8888" d="m458 464v-1h1q1 0 1 1v1q-1 1 0 1h1q1 1 1 2v2q0 2 0 4v1t-1-1v-2h-3v1l-1-2v-4q1-2 1-3z"/>
  <path id="svg_27" fill="#9f1415" stroke="#9f1415" d="m307 168h7l2 4q2 3 2 4 0 2 3 3t4 2v1h2l1 1 1 1h1l3 1q3 1 5 1 1 2 0 2-2 0-2 1t1 1h3l2 1 1 1h-1v1h-1v1h1v1h-2q-3-1-4-1t-2 5q0 5-1 5t-2 2-1 2q-1 0-1 1 0 2-1 2t-2 1v2h-4v-1h-1v-1h-1v1h-1v-2h-1l-2-1h-1l-1-1v-2h1q0-1 1-1t1-2q1-2 2-8l2-6h-1q-1 0-3-2-2 0-7-2l-5-1h-1q0-1-2-2t-2-2-2-1-2 1l1 1q-1 1-1 2h-2v-2q0-1 0-2 0 0-1 0t-2-2q-1-1-2-2h-1v-2h-3l-1-1v-1l1-1v-1h4l3 1q4 0 5-2 1-1 3-1t7 0zm17 45q0-1 0-1 0 1 0 1z"/>
  <path id="svg_28" fill="#9b322f" stroke="#9b322f" d="m382 443h1q0 1 1 1t1 0h1q1 0 1 1t-1 1-2 2q0 2-1 2t-1 1l-1 2q-1 2-3 2h-3v-1q1-2 1-7v-5h1q1 0 3 0t2 1z"/>
  <path id="svg_30" fill="#bc8382" stroke="#bc8382" d="m360 589v-1l4 1q3 1 2 4 0 2-1 2t-1 1v1 1q0 2-3 0-2-2-2-4-1-2-2-2l-1 1v-1q0-1 2-1 3-1 2-2z"/>
  <path id="svg_31" fill="#a37678" stroke="#a37678" d="m194 67l-1-4h1l2 5q2 4 2 4 0 1-1 1h-1q-1 1-2 1h-1v-1q-1 0-1-1t1-1 1-4z"/>
  <path id="svg_32" fill="#e0acaa" stroke="#e0acaa" d="m339 650q1-3 1-2t2 0q3-1 3 0 0 2 1 2 0 1-2 1t-3 1q0 1-1 1-2 0-1-3z"/>
  <path id="svg_35" fill="#913131" stroke="#913131" d="m362 143l1 2q1 2 1 4v2q-1-1-1-1-1 0-2 3t-3 1q-2 0-3-4l-1-3v-1h1v-1h2q2-1 3 0h1v-1q1-1 1-1z"/>
  <path id="svg_40" fill="#d25f61" stroke="#d25f61" d="m110 314v1l-1 3q-1 2-2 2t-1 1v1l2 2q2 2 3 3v1h-1q-1 0-2 0t-4-4q-2-4-3-4h-1v-1l4-1q3 0 3-1v-1q1 0 1 0t1-1 1-1z"/>
  <path id="svg_41" fill="#a04345" stroke="#a04345" d="m104 493v-1h2l2 2q1 2 2 2h2v1h1l1 1q0 1 0 2v3h-1v1h-4l-1-1h-1v-1l-1-1v-1h-3v-1q1-1 1-2t0-2v-2z"/>
  <path id="svg_44" fill="#c93b3c" stroke="#c93b3c" d="m218 633v1q0 1 0 2v2q0 2 0 4 1 2 0 2t-1 1h-2v-1q-1-1-1-1v-1q0-1-2-6l-1-4h1q1 0 4 0 2 0 2 1z"/>
  <path id="svg_48" fill="#974343" stroke="#974343" d="m320 589v-2h4t1 2v2q-1 0-1 1h-1q-1 0-2-1-1 0-1-2z"/>
  <path id="svg_49" fill="#8a4545" stroke="#8a4545" d="m104 290v1l-2 3q-2 2-4 2-2 1 0 2 1 2 0 2h-2q-1 0-2-1v-1t0-2 2-4l2-1 3-1q3 0 3 0z"/>
  <path id="svg_50" fill="#8e4641" stroke="#8e4641" d="m218 281l-1-1h1 1q1 0 1 1v1 1q-1 1 0 1h1v2q-1 1-1 1v-1q0-1-3 2l-2 2h-1q-2 0-2-2 0-1 1-1h1v-2q0-2 2-3 2 0 2-1z"/>
  <path id="svg_51" fill="#8d2d2b" stroke="#8d2d2b" d="m164 261h3l1 2q0 2 0 3 0 0-1 0v1q-1 0-1 1h-1-1t-2-3l-1-2 1-1q0-1 2-1z"/>
  <path id="svg_52" fill="#84403f" stroke="#84403f" d="m570 298h1v2q-1 1-2 2-1 0-2-2l-1-3h2q2 1 2 1z"/>
  <path id="svg_56" fill="#ed6a68" stroke="#ed6a68" d="m482 460v-1h4 5v3 3h-1q-1-1-4-1-2 0-3-2-1-1-1-2z"/>
  <path id="svg_59" fill="#953636" stroke="#953636" d="m317 573h2v1q0 1 2 2 1 0 1 1v3h-3q-3 0-4-1-1 0-1-1v-2h-1v-1l1-1q1-2 3-1z"/>
  <path id="svg_60" fill="#844f50" stroke="#844f50" d="m405 78v-1l2 1q1 1 1 3-1 3-2 2-2 0-2 0v-1t0-2v-1-1t1 0z"/>
  <path id="svg_62" fill="#843a39" stroke="#843a39" d="m119 459q1-3 3-2 2 0 2 2 0 3-3 3t-2-3z"/>
  <path id="svg_63" fill="#ab3233" stroke="#ab3233" d="m253 588l1-1 1 5q1 4 2 6t-1 2h-1v1 1h1 1l-3 1q-2 1-2 2 0 0-1-1 0-2-3-2-2 0-2-2l-1-1h1q0-1 0-1 0-1 1-2l1-1v-1t1 0v-1q1 0 2-1 1 0 1-1v-1l1-2z"/>
  <path id="svg_65" fill="#a62927" stroke="#a62927" d="m134 572l1 1 3 3q4 2 3 6-1 3-2 6-1 2-3 2h-1q-1-1-3-5t-3-9q0-4 1-4 2 0 4 0z"/>
  <path id="svg_66" fill="#ca6864" stroke="#ca6864" d="m198 577v1q1 2 2 1h1v1q0 1-1 1t-1 2q0 1-1 2h-3l-3-1-1-2q0-2 3-2 2 0 2-1v-1q1 0 2-1z"/>
  <path id="svg_70" fill="#cc8d8a" stroke="#cc8d8a" d="m438 249t1 1q0 1-2 2l-2 1h-1q0-1 0 0l-1 1-2-2q-2-1-2-4-1-2 1-2t3 3q1 2 3 1 1 0 2-1z"/>
  <path id="svg_73" fill="#c77f7f" stroke="#c77f7f" d="m216 583h1l2 2q3 2 3 3v1h-1q-1-1-1-1h-1v-1h-1v-1h-2l-2 1h-3q-2-1-2-1h-1q0-1-2-4l-1-3h2q3 0 3 1 0 2 2 2 3 0 4 1z"/>
  <path id="svg_74" fill="#e35f5a" stroke="#e35f5a" d="m137 341v1l-3 4q-2 3-3 4v2h-1v-1-2q0-2 1-3 0-1-1-1h-2v-1l4-3q3-3 4-2 0 1 1 2z"/>
  <path id="svg_76" fill="#d24948" stroke="#d24948" d="m117 338v-2h5l1 1h2l1 1 2 1q1 2 0 2t-1 1q1 2 1 2v1h-2q-2 1-2 1t-1 0v1h-1q-1-1-2-2l-2-1q0-1 0-2l-1-2v-2z"/>
  <path id="svg_77" fill="#d56b75" stroke="#d56b75" d="m181 442l-1-3 1 1q1 2 3 2h2v2q0 2 0 2v1t-1 1q-1 0-1 0v1h-1v-3q-1-2-2-4z"/>
  <path id="svg_79" fill="#c81112" stroke="#c81112" d="m592 404l6 1q5 1 6 3 0 1 1 3v2l1 11q0 11 2 18 2 6 1 10t-1 5q-1 1-2 2l-2 1-1 2-1 2v3l-1 1h-3v-1h-1v1h-4v-1h-1v-1h-2v-1h-1v-1h-1v-7q0-1 1-2v-1q-1-1-1-1v-1q0-1-2-9t-2-15l-1-6v-1q-1-1-1-7v-6t1 0v-1q1 0 1-1h1q1 0 3-1h3q1-1 1-1z"/>
  <path id="svg_80" fill="#824640" stroke="#824640" d="m365 24h-1v-1l-2-3q0-3 2-4 2-2 3 0t1 4q-1 2-2 3 0 1-1 1z"/>
  <path id="svg_81" fill="#bb7974" stroke="#bb7974" d="m78 583h-2v-1-1-1q0-2 2-3 3-1 6-1 2 0 4 2 1 2 3 2 1 0 1 2-1 2-6 2-6-2-8-1z"/>
  <path id="svg_82" fill="#9a5660" stroke="#9a5660" d="m552 535q2-1 2 2 0 2-2 2-2 1-2-2 0-2 2-2z"/>
  <path id="svg_83" fill="#844f52" stroke="#844f52" d="m546 314q-2 0-2-4t0-3q1 1 3 2 1 1 1 3t-2 2z"/>
  <path id="svg_86" fill="#815358" stroke="#815358" d="m880 31q1-1 2 0 2 1 2 2 0 2-2 2-3 1-3-1t1-3z"/>
  <path id="svg_88" fill="#93545a" stroke="#93545a" d="m47 222q0-2 2-2 3 1 2 3-1 3-3 2t-1-3z"/>
  <path id="svg_90" fill="#c01719" stroke="#c01719" d="m594 266l5-4 2 4q3 4 3 6t1 8l1 6v2 2l1 6q1 5 0 11-1 7-3 8t-4 4q-1 3-1 3h-1t-2 1q-2 0-3-3l-1-3-1-3q-1-4-1-12-2-7-4-14t-2-12q0-4 2-5t8-5z"/>
  <path id="svg_91" fill="#cfaeab" stroke="#cfaeab" d="m658 510q2 0 4 2 2 3 0 3-3-1-4-3t0-2z"/>
  <path id="svg_93" fill="#b11b1b" stroke="#b11b1b" d="m176 442l3-3h1l1 3q1 2 2 4v3l-2 2q-2 1-2 2h-1q-2-1-3-1t-1-3l-1-2v-1q1 0 3-4z"/>
  <path id="svg_94" fill="#c97d79" stroke="#c97d79" d="m194 467l1-2h1q0 1 1 1h5v2q0 1 0 4v5q0 1-2 1-1 0-2-3-2-2-3-3l-2-1h-2v-1q0-1 1-1 1-1 2-2z"/>
  <path id="svg_95" fill="#76514f" stroke="#76514f" d="m588 91q2-1 3 1t-2 2-3-1q0-2 2-2z"/>
  <path id="svg_98" fill="#b98d8b" stroke="#b98d8b" d="m264 517v-1l3 2q3 0 5 1h1v1q-1 0-1 0l2 1q1 1 1 1h-4v-1h-1v1h-2q0-1-1-1h-1q-2-1-2-1l-1-1v-1l1-1z"/>
  <path id="svg_99" fill="#a33b40" stroke="#a33b40" d="m423 483h1v1h1v1h1v1h2t-1 1-1 3q-1 2-4 2h-2v-1t-1-1l-1-2v-2t1 0v-1l2-1q2 0 2-1z"/>
  <path id="svg_101" fill="#9f4647" stroke="#9f4647" d="m90 486l-1-2h2 2l1 1 2 1h1q1 1 1 3 0 1-1 2h-1-2l-2-1h-1q-1-1-1-4z"/>
  <path id="svg_103" fill="#aa2d2d" stroke="#aa2d2d" d="m414 544l2-1v6l1 3q1 2 0 4v2t-3 1h-2l-1-1-1-1v-2h-1v1h-1v-1q0-1-1-1t-1-1v-1h1q1 0 1-1v-2l1-1q1 0 1 0h2v-2q0-2 2-2z"/>
  <path id="svg_104" fill="#d8867e" stroke="#d8867e" d="m287 287h-1q0 1 0 1h-1l-1-1q0-1 1-1t1-2 2-2q2 1 2 2 0 2-1 2-1 1-2 1z"/>
  <path id="svg_106" fill="#8d4544" stroke="#8d4544" d="m138 400q1-4 3-3 3 1 2 4 0 3-3 3t-2-4z"/>
  <path id="svg_107" fill="#a32728" stroke="#a32728" d="m452 285h2v2 2h2q3 1 6 1h2l-1 2q-1 3-2 3l-4 1q-3 2-3 6 2 3 2 5v2q0 1-2 0t-5 0l-3 1q0-1-1-3t-3-5l-2-2v-1q0-1 1-1h1t0-1h1 1q1-1 2-2 0-1 2-2t1-4l-1-3q1 0 4-1z"/>
  <path id="svg_108" fill="#d66f6b" stroke="#d66f6b" d="m482 235h4 1v1q1 0 1 0v1h-1q-1-1-3-1-3 0-4 2v1q-1 1-4 1h-3l2-2q3-1 3-2t4-1z"/>
  <path id="svg_109" fill="#933d3b" stroke="#933d3b" d="m472 232v1q0 1-2 1-1 2-4 2-3 2-4 1v-1l3-2q3-1 4-2 0-1 1 0 2 0 2 0z"/>
  <path id="svg_110" fill="#991010" stroke="#991010" d="m361 99v-1l4 2q4 2 4 3l1 3q1 2 2 6 2 4 2 4v1q0 1-4 2l-3 1-1 1-2 1h-1q-1 0-1 1h-1q-1-1-3-2-3-1-5-4-3-3-4-4l-2-1h1v-2-1h1v-1h1q1 0 1-2 1-2 1-3v-1l2-1q2-1 4-1 3 0 3-1z"/>
  <path id="svg_114" fill="#9d1c1c" stroke="#9d1c1c" d="m202 116h1q1 1 2 2v9h3v2h-1v1h1v1l1 1 1 2q2 2 2 5v3q-1 0-1 1v1q1 2 1 4v1q-1 1-1 1h-1q-2 0-5-1-3 0-3 3v3l-1 1v1h-1v1h-3v-1h-1v-1l-1-3v-4q1-1 1-3t-2-2q-2-1 0-2 1-1 1-2 0-2-1-2t-2-3l-2-3h1v-1h1v-1h2v-1h2q2 0 2-3v-4q0-1 1-1 1-1 1-2l1-2q1 0 1-1z"/>
  <path id="svg_116" fill="#994644" stroke="#994644" d="m421 542v-1h1 1l-1 2q0 2 2 2h1v1h1 1t1 0v-1h1q1 0 1 1 0 2-1 2h-1v2q-1 2-2 3h-1q-1-1-1-1t-3-4l-2-5h1q1 0 1-1z"/>
  <path id="svg_118" fill="#b22221" stroke="#b22221" d="m468 588h4v4q0 3 0 6 1 3 4 3t3 1 1 1 1 1q1 2 1 4v1t-1 1h-2q-2 0-2 2 0 3-2 3l-2-1h-3q-2 0-4-1t-2-3q0-3-1-6-1-4-2-7l-1-3v-1l1-1h1l2-1q2-1 3-2v-1h1z"/>
  <path id="svg_120" fill="#a42c2c" stroke="#a42c2c" d="m502 646v5q0 2-2 2l-2-1h-4v-1h-1v-1h-1v-3l1-2q1-3 5-2t4 3z"/>
  <path id="svg_125" fill="#cb3331" stroke="#cb3331" d="m297 668v-1h5l1 1q1 1 0 4-1 4-1 6-1 2-2 2t-1 1h-5q0-1-2-2t-2-3v-2h1t3-2l3-2q1 0 0-2z"/>
  <path id="svg_130" fill="#a23c36" stroke="#a23c36" d="m380 519v2q-1 2-2 2-2 0-2 1t1 1l1 1h-2-1q-1 0-2-3l-2-3 3-1q4-1 4-1 1 0 2 1z"/>
  <path id="svg_132" fill="#de5353" stroke="#de5353" d="m206 354v-3h1q1 0 1 3v3h-1v1h1v1 1h-2q-3 0-4 0 0 0 0-2l-1-2v-1h1q1 0 1 1t1 0q2 0 2-2z"/>
  <path id="svg_133" fill="#b21919" stroke="#b21919" d="m154 440h1l1 2q2 2 5 3h3v8l1 1 1 1 2 1q2 1 3 4 1 4 2 6 1 1 2 1t1 1v1h-4v-1t-1 0q-1-1-1-2-1-2-4-3l-3-1v2q-1 1-4 2-3 2-3 4 0 1-1 1t-1-1-2 0q-3 0-3-1t-2-3q-3-2-5-2h-2v-1l-1-1-1-1v-1h-2v-3l1-1v-1h3q4 0 4-1 0-2 2-4l2-1q1-1 3-1 1-1 1-3-1-1-2-4l-1-3v-1q0-1 1-1 2 0 3 2t1 2z"/>
  <path id="svg_136" fill="#b02d2f" stroke="#b02d2f" d="m305 692h1l2 1 1 1h1 1l1 3q2 3 1 3t-1 1q0 0-1 1 0 0 0 1-1 0-4 1-4 0-5-1l-2-2v-1t-1 0v-1q1-1 1-3 0-1 3-2l2-2z"/>
  <path id="svg_137" fill="#9c4441" stroke="#9c4441" d="m307 597h3q0-1 0-1l1 1q1 1 2 2l1 1v4q-1 0-2 1l-1 1h-2v-1h-1v-1h-1q-1 0-1-4 0-3 1-3z"/>
  <path id="svg_138" fill="#a13d41" stroke="#a13d41" d="m349 556v-2h1v2h1l3-1q2-1 2-1t1 1v1t-1 2-4 2l-3-1q-1 0 0-3z"/>
  <path id="svg_142" fill="#c17879" stroke="#c17879" d="m110 163v2h-1v1h-3q-4 0-5-4-1-3 0-4 1-2 3-1 3 1 4 2 0 1 1 1t1 3z"/>
  <path id="svg_144" fill="#a04847" stroke="#a04847" d="m571 375h1v1q0 1 0 2 0 0-3 0h-4v-1h-1v-1t-1 0v-1q0-1 3-1 4 0 5 1z"/>
  <path id="svg_145" fill="#c94a4a" stroke="#c94a4a" d="m496 237v-1l2 1q1 1 2 1h1l2 2q1 1 1 3t-1 3v1h-1q0 1-6 1l-6 1v1 2l1 1v1h-1-1v-4q0-4 4-4 4-1 5-4t0-3q-1-1-2-2z"/>
  <path id="svg_150" fill="#973239" stroke="#973239" d="m124 470l-1 2v1h-1v1t-3 0q-2 0-3-1-2-1-1-3t5-2 4 2z"/>
  <path id="svg_151" fill="#d89090" stroke="#d89090" d="m533 260h1v1h-2q-3 1-8 0h-5v-1q0-1 3-2 4-1 4-3 1-2 2-2t2 3q1 2 2 3 0 1 1 1z"/>
  <path id="svg_154" fill="#cb3e3d" stroke="#cb3e3d" d="m571 188l1-3 2 3q1 4 6 5 4 1 4 2h1v1l2 1q1 1 1 2v1q-1 0-4 3l-3 2h-2q-2 1-2 1h-1v-1q0-1 1-3v-2h-1q-1 0-1 1-1 0-2 0h-1v-1t-1 0v-1h-1v-1q0-1 0-2v-2-1q0-1 1-5z"/>
  <path id="svg_157" fill="#ab2d2f" stroke="#ab2d2f" d="m595 612l3-1h3l2 1q2 2 2 2h1v1h1v1h1v7h-2l-2 1h-4l-1-1q-1-1-3-4l-3-4v-1q1-1 1-1v-1h1z"/>
  <path id="svg_158" fill="#894f4d" stroke="#894f4d" d="m718 570h4v5h-2q-2-1-2-1h-1v-3q1 0 1-1z"/>
  <path id="svg_163" fill="#985258" stroke="#985258" d="m413 482h2l2 2q1 1 2 1v1q-1 0-1 0v1h-1q0-1-1-1-2 0-4-2t1-2z"/>
  <path id="svg_164" fill="#9e302e" stroke="#9e302e" d="m464 499h1l1 1q1 0 0 1 0 1 0 3v1h-1q-1 0-1-1t-2-2q-1 0-1 1-1 1-4 2l-3 1q-1 0-1-1h-1v-4q0-4 3-5 2 0 5 2 2 2 2 2 1 0 2-1z"/>
  <path id="svg_165" fill="#d73332" stroke="#d73332" d="m237 631h2v1l-1 1-1 1q-1 0-1 1-1 1-2 2-1 0-1 2 1 2 0 2v-1q-1 0-1-1-1-1-3 0l-2 1h-1t0-1q-1-1-4-1l-4-1v-2h-2v-2h4l2 1 8-2q7 0 7-1z"/>
  <path id="svg_169" fill="#91524f" stroke="#91524f" d="m135 593l2 2q3 2 2 4 0 1-1 1h-2t-2-2l-1-3h1q0-1 0-1 1 0 1-1z"/>
  <path id="svg_170" fill="#a94040" stroke="#a94040" d="m290 550h1t1 1q0 1 0 1h1t1 1q0 1-4 1l-5 1h-1q-2 0-2-1l-1-2 3-2q3-3 4-2 0 2 2 2z"/>
  <path id="svg_178" fill="#9f403f" stroke="#9f403f" d="m459 302l2-3h1q1 0 1 1t5 2q5 0 6 0v2h-1v1h-1v1t-1 1-6 1h-5q0-1-1-1v-1q-1 0-1 0 0-1 1-4z"/>
  <path id="svg_179" fill="#cc8b8c" stroke="#cc8b8c" d="m219 155v-1h1l1 1 1 1 1 1 1 1v1l-1 1q-1 2-1 2t-1 1l-1 1t-2-3l-2-2q0-1 1-2l1-2h1z"/>
  <path id="svg_181" fill="#8e2523" stroke="#8e2523" d="m265 157h1q0 1 0 1l1 2 1 2 2 3q3 3 3 4h1v1h1v1h1v1h1q1 0 1-1t2-1h3q1 0 1 0h1v1l-1 1v1l1 1h-2q-2 0-5 1-2 1-2 2t-4 2l-3 1v1h-1v1h-4v-1h-1v-1l1-2 2 1h1l-1-2q0-2 2-2h3v-1q-1-1-3-6l-4-5q0-1-1-2l-1-1v-1q0-1 2-1 1 0 1-1z"/>
  <path id="svg_183" fill="#873f3f" stroke="#873f3f" d="m80 211h1q1 0 0 2t-1 3v2h-6l-1-2v-1h1v-1l1-1v-1h5t0-1z"/>
  <path id="svg_184" fill="#874442" stroke="#874442" d="m179 456l1-2h1q1 0 1 1l1 1v2t-2 0-3 0q0-1 1-2z"/>
  <path id="svg_186" fill="#8b4a50" stroke="#8b4a50" d="m932 474q-2 1-3-2t1-4q2 0 3 0 1 1 1 4 0 2-2 2z"/>
  <path id="svg_187" fill="#974b4c" stroke="#974b4c" d="m704 574h2q1 0 2 1l1 1q1 2 1 2v1q0 1-1 1v1h-1v1h-2l-1-1-1-1-1-2q0-3 1-4z"/>
  <path id="svg_194" fill="#8a3031" stroke="#8a3031" d="m392 90h2v5q0 5 0 6v1h-2v1h-1v1h-4v-1h-1v-1l-1-1-1-1 1-2q1-3 1-4h1q1 0 2-2t3-2z"/>
  <path id="svg_195" fill="#9d2b2b" stroke="#9d2b2b" d="m488 365h4q2 0 2 3 0 2 1 3t1 2 0 2v1q-1 0-3 2l-2 1h-2l-2-1h-1v-1l-1-1-1-1v-1l-1-1q-1-1-1-1v-1l2-3q1-4 4-3z"/>
  <path id="svg_203" fill="#872c2b" stroke="#872c2b" d="m416 176h1t1 1v1q1 2 2 2v1q0 1-1 1 0 0-7-1l-6-1v-2q1-3 6-3 4 1 4 1z"/>
  <path id="svg_204" fill="#b6393b" stroke="#b6393b" d="m347 642v-2h2q2 0 3 1h4q2-1 3-1h1v4h-1q-1 0-1 2t-1 2v1q-1 0-1 1h-1q-1 0-4-3l-3-2v-1t-1 0v-2z"/>
  <path id="svg_208" fill="#924141" stroke="#924141" d="m52 472h1l2 1q3 1 2 3t-4 2-2-2q1-3 1-4z"/>
  <path id="svg_209" fill="#b41d1d" stroke="#b41d1d" d="m432 573v-1l4 1q4 1 6 5 4 3 4 3l1 3q1 3 2 4v1l-1 3q-1 4-2 4-2 0-2 0v1l1 3q1 3 1 6v3 1h-1l-1-1h-2v1 1h-1v-1h-1-1l-1-1q-1-1-2-1t-3-3q-1-3-4-5t-5-5l-2-3-1-2v-1q1 0 1-2l1-2h1v1l1-4q1-4 3-5t2-3l1-1h1zm2 21h-3l-1-2q0-3 4-3t6 2 2 3q-1 2-2 0-2 0-6 0z"/>
  <path id="svg_211" fill="#d87978" stroke="#d87978" d="m230 330l1-3 1 3q1 4 2 4 0 0 2 1h1l1 1q0 1 0 2 0 2-1 2v1h-1q-1 0-1-1-1-1-1 0t-1 4v2q-1 0-1-2 0-1-2-6 0-5 0-8z"/>
  <path id="svg_212" fill="#ad2e2d" stroke="#ad2e2d" d="m252 358v-2h5q5 0 5 1h3v1q0 1 2 1h2l-1 3q0 4 0 5-1 1 0 1 0 1-2 4-2 2-3 4 0 1-1 2-2 0-2 0h-3q-1 0-1 0h-1q1-1 0-3 0-2-3-1h-2q0-1-1 0-1 0-1 0v1h-5v-1h1l1-1 1-1h2q1 0 2-5l1-4h1q1 0 0-1v-4z"/>
  <path id="svg_215" fill="#824049" stroke="#824049" d="m606 346q2 0 2 2 0 3-2 3-2 1-2-2 0-2 2-3z"/>
  <path id="svg_216" fill="#942c2c" stroke="#942c2c" d="m573 31q3-1 5 4 1 5-1 6-1 1-6 1t-5-4q0-5 2-6t5-1z"/>
  <path id="svg_218" fill="#e49f97" stroke="#e49f97" d="m282 306l2 2v-1h1v-1h1v1h1v1h1v3l-1 1-1 1v1h-1q-1-1-1-1v-1t-1 0v-1q-1-1-1-1v-1t-1-1 0-2q0 0 1 0z"/>
  <path id="svg_219" fill="#99484d" stroke="#99484d" d="m136 608q0-2 3 0 3 3 2 6-1 2-2 2t-3-3q0-3 0-5z"/>
  <path id="svg_220" fill="#f07170" stroke="#f07170" d="m140 329h3q0 1 1 1h1v1q0 1-3 2t-3 0q-1-1-3-1l-2-1v-1-1h2q1-1 4 0z"/>
  <path id="svg_221" fill="#874142" stroke="#874142" d="m1004 293q2 0 3 3 0 4-3 5t-4-2q0-3 1-5 1-1 3-1z"/>
  <path id="svg_222" fill="#8b4e52" stroke="#8b4e52" d="m552 340q2 0 2 2 0 3-1 4-1 0-2 0t-1-3 2-3z"/>
  <path id="svg_223" style="vector-effect:non-scaling-stroke" fill="#cd2f30" stroke="#cd2f30" d="m143 330v-1h1l1 1h1v4h-3v1h-1l-2 1q-3 1-3 4 1 2 0 2v-1q-1-1-1-2-1-1-4 2l-4 3t-1-2q0-1 1-1t0-2l-2-1-1-1h-1v-1l1-1 1-1v-1h1v1l3-1q2 0 3-1t1-1l2 1q2 0 3 1 0 1 2 0 1-1 2-3z"/>
  <path id="svg_226" fill="#9f4a4b" stroke="#9f4a4b" d="m162 500l2-1t-1 1h-1t0 1h-1q0 1-1 1 0 0 0 1h-1l3 3q2 2 2 4-1 1-3 2-3 0-3 2 0 3-1 3v-3q0-3-1-4l-2-1h2l1-1h-1v-2h1q1 0 1-1 0 0 0-3 2-2 4-2z"/>
  <path id="svg_228" fill="#933638" stroke="#933638" d="m681 214l2-1h1v1l2 1q2 1 3 3v3q-1 0-1 1t-4 0q-4 0-4-3t1-5z"/>
  <path id="svg_229" fill="#a84040" stroke="#a84040" d="m308 572l1 3v1l-1 1v1 1l-1 1h-1-1v-1h-1v-1q0-1-2-5t2-4q3-1 4 3z"/>
  <path id="svg_232" fill="#c48580" stroke="#c48580" d="m541 360l1 2q1 2 2 2t1 1h-1q-2 0-1 2t2 4l1 2v1h5t-5 0q-4 0-6-2l-1-2h1q1 0 1-1 1 0 0-3v-2q-1-1-1-1v-1q0-1 1-2z"/>
  <path id="svg_234" fill="#9d2827" stroke="#9d2827" d="m439 292h1 1l1 2q0 2 1 2v1h-1q0 1 0 1-1 0-1 1h-1q0 1 0 1t-2 1h-2v-1t-2-2q0-2-3-2h-3-2q-1 0-2-2l-1-3h1v-2q0-1-1-3-1-1 2-1 3 1 8 3 5 3 5 3 0 1 1 1z"/>
  <path id="svg_241" fill="#a64e4d" stroke="#a64e4d" d="m444 431v-1h1v1h1v1h3l1 1h2v2l-2 2q-2 1-1 2 1 0 1 1t-1 1l-1 1h-1v1q-1 0-1-1t-5-2l-4-1h3v-2h2v2l1-3q1-3 0-4v-1h1z"/>
  <path id="svg_244" fill="#99090a" stroke="#99090a" d="m356 95v2h2l2 1h1l1 1v1h-2q-3 0-4 0 0 0-2 1l-2 1v1q0 1-1 3 0 2-1 2h-1v1h-1v1 2h-1-1v-2q0-1-2-2 0-2-3-3-2-1-2-3-1-1-4-4-4-2-7-3-2-1-2 2-1 2-2 2-1-1-6 2l-6 3h-2q-2 0-5 1l-3 1h-4-4l-2-1q-3-1-5-1t-7-4l-4-3-4-5q-3-6-4-6-2 0-3-15t1-19q1-4 4-6 4-1 6-3 2-3 8-5t10-2 12 0 13 3 7 9q2 7 4 14 2 8 2 14t2 7q1 1 4 3 2 1 4 4 2 2 4 3 2 0 2 1 1 0 4 0t3-1q1 0 1 2z"/>
  <path id="svg_245" fill="#e6a59c" stroke="#e6a59c" d="m310 403v-3h2q3 1 3 2-1 1-1 3v2q-1-1-2-1h-2q-1 0 0-3z"/>
  <path id="svg_246" fill="#bc2121" stroke="#bc2121" d="m231 72q-1 1-2 2-1 2-2 7l-1 5-1 2v2h-2-2v-1l-1-1v-4q0-4-1-4v-2q-1-3-1-4-2-2-2-6v-3h1l3-1q3 0 2 3t4 2q4-1 4 1t1 2z"/>
  <path id="svg_248" fill="#9d3d3f" stroke="#9d3d3f" d="m580 564h-4l-1-1q-1-2 0-3 0-1 4-2 4 0 5 3t-4 3z"/>
  <path id="svg_249" fill="#a01819" stroke="#a01819" d="m176 305l1-1h9v4q0 3-1 4v1q-1 0-1 1v1h1v1h2l1-1h1l-1 3q0 2 0 2 0 1-1 2v1h-1q0-1-2 1l-3 1h-1q0 1-2 1-3 0-5-3l-2-2v-1q-1 0-1 0 0-1-2-2h-1v-1h-1v-2h-1v-1h-1v-3l1-1 1-2v-1h1v-1h9t0-1z"/>
  <path id="svg_250" fill="#a52525" stroke="#a52525" d="m297 198l1-1v3h1v1q-1 0-1 1v2h-2v1l1 1q0 1 4 2 3 2 4 4 0 1-1 1t-1 3q-1 4-2 6-1 3-2 3h-1q0-1-2-2t-4-10-2-9h2v-1l1-1q1-2 1-2l1-1v1h1v-1l1-1z"/>
  <path id="svg_251" fill="#be3836" stroke="#be3836" d="m576 206h1l-1 4q0 5 1 5l1 1 1 1q1 2 2 2v3q-1 3-4 6l-4 2v-1q1-1 1-4v-3-2q0-1 0-3v-2l1-5q1-4 1-4z"/>
  <path id="svg_253" fill="#d1908a" stroke="#d1908a" d="m468 229h3q0 1 1 1v2q0 1 0 1v-1t-2 0q-1-1-1 0v2h-3q-3 0-4 1v1h-2v-2l2-1q3-1 3-3 0-1 1-1 2 1 2 0z"/>
  <path id="svg_259" fill="#882225" stroke="#882225" d="m831 16v-4h12t0 5q0 4-1 4-1 1-5 1h-4v-1h-1v-1t-1-4z"/>
  <path id="svg_262" fill="#a32b2b" stroke="#a32b2b" d="m297 182l1 2q0 2 4 2 3 1 3 0v-1l5 1q5 2 7 2 2 2 3 2h1l-2 6q-1 6-2 8 0 2-1 2t-1 1h-1v2l1 1v2q-1 2-2 2-2 0-1-2 0-3-1-4-1 0-1-4 0-3 2-4 2-2 0-2-1 0-3 1-1 2-3-1l-2-3h-1v-1h-2v1h-1v3q0 3-1 3v-1h-1v-3l-1 1-1 1v1h-1v-2l1-1v-3q0-2-1-6v-4h1q0-1 1-2z"/>
  <path id="svg_264" fill="#9d3d40" stroke="#9d3d40" d="m493 579h1 1l1 1q2 0 2 2 0 3 0 4v1h-2q-3-1-3-4v-3-1z"/>
  <path id="svg_269" fill="#823636" stroke="#823636" d="m514 114v-1l3 1q3 0 3 3v3h-9v-1h-1v-1h1v-1h1v-2l1-1q1 0 1 0z"/>
  <path id="svg_270" fill="#a23d3d" stroke="#a23d3d" d="m235 358l1-3 2 1q2 0 2 1h1v3q-1 2-1 3-1 1-3 0-3 0-3 0v-1t1-4z"/>
  <path id="svg_271" fill="#a15151" stroke="#a15151" d="m460 593v1h-1q-1 0-3 0-1 0-2-2l-1-3h1q2-1 3 0t2 3q1 1 1 1z"/>
  <path id="svg_273" fill="#ad2425" stroke="#ad2425" d="m345 542v-1h3l1 5q1 6 0 7v3q-1 3 0 3v2q-1 2-1 6v4h-1v-1h-1v-1h-1v-1h-1v2q-1 0-2-1h-2v-1q1 0 1-1v-1h-1v-2l-1-1v-1q-1-1-1-1v-5q0-4 2-6l1-2q1-1 1-1v-1h2q2 0 2-1v-1l-1-2z"/>
  <path id="svg_274" fill="#9c3a3b" stroke="#9c3a3b" d="m235 436v1 1q1 2 1 3 2 1 1 3t-3 3h-1v-1q-1 0-1 0h-1v-1q-1 0-1-3 0-2-2-2-1-1-1-2v-1h3q3-1 4-1 0-1 1 0z"/>
  <path id="svg_275" fill="#995354" stroke="#995354" d="m93 333v-1h1q1 0 1 1t1 1 1 1h-1q-1 1-2 1h-1l-3 1q-3 0-3-1 1-2 3-2 3 0 3-1z"/>
  <path id="svg_277" fill="#915b5d" stroke="#915b5d" d="m685 697q0-3 2-2 1 1 2 3 0 1-2 1-3 0-2-2z"/>
  <path id="svg_278" fill="#984245" stroke="#984245" d="m959 483q3 0 3 3t-2 4q-1 0-3 0-1-1-1-4t3-3z"/>
  <path id="svg_280" fill="#9e1e1e" stroke="#9e1e1e" d="m190 313v-1h1q1 0 1 1t1 1l2 2q3 2 5 6 4 4 4 4v2q0 1-1 2h-3q-3 0-4-2 0-2-2-2h-1q-1 0-1 1t-2-2l-2-3h-1v-2q1-1 1-2 0 0 0-2l1-3h1z"/>
  <path id="svg_284" fill="#8f4347" stroke="#8f4347" d="m331 551l1 1q2 1 1 3-1 1-2 2h-1v-1t-1 0q-1-1-1-1v-1h1v-1h1q0-1 0-1 1 0 1-1z"/>
  <path id="svg_288" fill="#ca2e2d" stroke="#ca2e2d" d="m474 457h1l1 1q1 0 4 1h2v1q0 1 1 2 1 2 3 2 3 0 4 1h1v1h-4q-1 0-1 4-1 4-4 4-2 0-4 0h-2v-1q0-1 1-1t0-2q-1-1-3-2-3 0-3-1t-1-1h-2l-1 1h-1v-1h-1l-1-1v-1l1-1 1-1h2q3-1 4-3 2-1 2-2zm1 4q0-1 1-1 0 1 0 2 0 0-1-1z"/>
  <path id="svg_289" fill="#ac2929" stroke="#ac2929" d="m415 598v2q-1 0-1 0v2q0 2-1 3v1q-1 0-1 0t-4 1q-3 1-4-3-2-3-3-4h-1v-2h2q2 0 2 0l4-1q5-1 6-1 0 1 1 2z"/>
  <path id="svg_290" fill="#803437" stroke="#803437" d="m431 93h4l1 1q1 0 1 3v3h-2v1h-1v-1h-6l1-3q1-3 2-4z"/>
  <path id="svg_292" fill="#905258" stroke="#905258" d="m684 584h2v1l1 1v2h-2l-2 1q-2 0-3-1v-3l1-1q1 0 3 0z"/>
  <path id="svg_294" fill="#835759" stroke="#835759" d="m583 142h1v-1h2l1 1v2q-1 2-1 2t0 1h-2l-2-1v-4h1z"/>
  <path id="svg_296" fill="#924242" stroke="#924242" d="m403 223v-1h1v9-1q0-1-3-1t-3 1-1 0q-1 0 1-2 0-3 3-4 2 0 2-1z"/>
  <path id="svg_299" fill="#8c5155" stroke="#8c5155" d="m757 415q2-1 3 2t-2 3-3-3q0-2 2-2z"/>
  <path id="svg_301" fill="#cc5153" stroke="#cc5153" d="m220 61v-1h3 3l2 1 1 1 3 1q2 1 2 3 0 3-1 3h-1q0 1 0 2l-1 1q-1 0-1-2t-4-1q-5 1-4-2t-2-3l-3 1v-1-1h1l1-1h1v-1z"/>
  <path id="svg_302" fill="#952c2d" stroke="#952c2d" d="m96 376h-4l-1-3q-1-3 0-5t5-2 4 5-4 5z"/>
  <path id="svg_303" fill="#932f2f" stroke="#932f2f" d="m148 298h4l1 2q1 3 1 4v1h-1v1h-3q-1 0-2 0v-1h-1v-1h-1v-1l-1-3q0-2 3-2z"/>
  <path id="svg_307" fill="#973531" stroke="#973531" d="m260 537l2 1q3 0 3 2v3q-1 0-1 1 0 0-1 0v1q-1 0-1 1h-1q-1 0-1 1-1-1-1-1h-1v-7q1-1 1-1h1t0-1z"/>
  <path id="svg_308" fill="#9f312f" stroke="#9f312f" d="m416 304h1l1 2q1 2 2 2 2 0 2 0 1 0 2 1v2q0 2 1 3v2l-1-1q-2-1-3 2t-1 5v2h-2q0-1-1-1v-1q-1-2-1-2 0-1 0-4 0-2-2-2h-1l-1-1v-1q0-2 1-2t2-3 1-3z"/>
  <path id="svg_312" fill="#a06b6c" stroke="#a06b6c" d="m549 196h-1t0 1q-1 1-2 1 0 1-1 4l-1 3h-2q-1 0-1-1 0-2-1-2t-1-2q-1-1 1-2l2-1q1-1 2-1l3-1q3-1 3 0t-1 1z"/>
  <path id="svg_315" fill="#c63438" stroke="#c63438" d="m552 498h2v-1h1v1l1 2q0 1 1 2v2l-1 1v1q0 1-1 2-1 2-4 3l-3 1h-2l-1-1h-1v-2h-1v-1q-1 0-1 0v-2q0-1 1-2h2l1-1 2-1h2v-2h1v-2h1z"/>
  <path id="svg_317" fill="#d64748" stroke="#d64748" d="m466 472l-2-7 2 1q2 1 2 1v-1h2q1 0 1 1t3 1q2 1 3 3 0 1 0 2h-1q0 1 0 1l-1 2q-1 1-1 3v2t-1-2q0-2-1-2h-1v1q0 1-1 1t-4-7z"/>
  <path id="svg_318" fill="#9e2b28" stroke="#9e2b28" d="m129 425h1q0 1 0 1h1t1 1q0 1 0 1h1v4q0 3-1 3l-2 1h-4t-1-1-1-3v-4h1l1-1 1-1h2v-1z"/>
  <path id="svg_319" fill="#865055" stroke="#865055" d="m191 743h-1q-1-1-2-1v-1-1q0-2 2-2 2 1 2 3 0 1-1 2z"/>
  <path id="svg_322" fill="#88302f" stroke="#88302f" d="m530 116h-1v1h-1l-2-1q-2-1-2-4 0-4 3-4t4 1 0 3q-1 3-1 3 0 1 0 1z"/>
  <path id="svg_327" fill="#c5656d" stroke="#c5656d" d="m122 101q2-1 2 1 0 1-2 2-3 1-3-1 1-2 3-2z"/>
  <path id="svg_329" fill="#d8797b" stroke="#d8797b" d="m232 69h1v3q1 2 0 3v1l-1 1q0 1 1 2t1 2q-1 1-1 1h-1t0 1h-1q-1 0-1 4l-1 4v-1q-1 0-2-2l-1-2 1-5q1-5 2-7 1-1 2-2l1-1q0-1 0-2z"/>
  <path id="svg_330" fill="#914645" stroke="#914645" d="m376 588v2t-1 0v1h-1q-2-1-3-3-1-3 1-3 4 0 4 3z"/>
  <path id="svg_331" fill="#dd908f" stroke="#dd908f" d="m259 425h1v1l1 1v1h-2v1h-1v1h-2v3q-1 3-2 3h-2t1-1q1 0 1-1 0-2-2-2-1 0-2-2v-1l1 1q1 0 1-2 0-1 1-1 1-1 2-1h4v-1z"/>
  <path id="svg_334" fill="#9c4d52" stroke="#9c4d52" d="m82 256l1 2v1l-1 1-1 1-1 1h-1v-1h-1v-3q0-2 2-2 2-1 2 0z"/>
  <path id="svg_337" fill="#c68786" stroke="#c68786" d="m117 283h2v-3-2h1 1v4q1 4 1 4v1h-4q-4-1-6-2l-3-2-1-3q-1-2 1-1 1 1 2 2 0 1 2 1t4 1z"/>
  <path id="svg_339" fill="#8c1a1a" stroke="#8c1a1a" d="m638 61v7q0 1-1 2h-1v1t-1 1l-1 1v1h-1v1h-1v1h-12v-1h-1v-1h-1t-1-2h-1v-1l-1-4q-1-3-1-7 1-4 4-4 2-1 2-3-1-2 0-2t1 1 2 0q2 0 3 0 1 2 4 2 2 0 4 1t2 3q2 3 2 3z"/>
  <path id="svg_340" fill="#902724" stroke="#902724" d="m144 253v1q0 2 0 2h1v1q1 1 1 1v6t-1 0v1h-1q-1 1-4 1l-2 1v-1h-1v-1h-1v-9h2q2-2 4-2h1l1-1z"/>
  <path id="svg_341" fill="#a83538" stroke="#a83538" d="m98 667l-1-1-1-3q0-4 4-5 4 0 5 1t1 5q0 3-4 4-4 0-4-1z"/>
  <path id="svg_342" fill="#c24446" stroke="#c24446" d="m145 310h2l4 2q5 3 5 4v1h-1q-1-1-5 0t-4 3-4 2l-3-1h3l2-1t-1-2-3-2h-2q0-1 2-2 1 0 2-2 0-2 3-2z"/>
  <path id="svg_344" fill="#ae1011" stroke="#ae1011" d="m252 136h1l2 9q3 9 3 9t2 1l1 1h1l2 1h1q0 1-1 1-2 0-2 1v1h-2q-3 0-2 4 0 4 0 8v5l1 3v2h4l-1 1v1l-1 1v1h-2q-2 0-3 1t-2 2v1h-1l-2 1q-2 1-2 1h-1v1h-2v-1h-1v-1q-1 0-2-5-1-4-2-4l-1 1v-1q0-2-1-2-1 1-3-2-2-2-4-2l-2-1v-1q0-1 0-2 0 0 2-2 2-3 2-8l1-5q0-1 0-3-1-3-1-6 0-4 1-6l1-2h1l4-2q4-2 7-2t4 0z"/>
  <path id="svg_345" fill="#952324" stroke="#952324" d="m128 357h1q0 1 1 1h1q1 1 1 4v3t-1 1q-1 0-5 1t-5-1h-1v-1h-1v-1h-1q0-1 2-4 1-2 4-3t4 0z"/>
  <path id="svg_347" fill="#b11e1f" stroke="#b11e1f" d="m290 564h1 1t0-1l2 1q2 1 3 2v1q-1 0-1 1 0 0-1 0v1l-1 1t0 2v2 2 2l-1 1v1l-1 2q0 3-2 3-2-1-4 0h-1-3q-2-1-3-2l-1-2-1-5-1-4v-2-1l5-1q5-2 5-3 1-1 2-1t2 0z"/>
  <path id="svg_348" fill="#8b5a61" stroke="#8b5a61" d="m733 564q1 0 2 2t-1 2-2-2 1-2z"/>
  <path id="svg_349" fill="#8f2423" stroke="#8f2423" d="m212 108h2t0 1h1l1 1q2 2 2 4v2l-1 1-1 1-1 1q-1 1-3 1l-3 1v-1q-1-2-1-2v-4q0-4 1-5t3-1z"/>
  <path id="svg_351" fill="#9f3d3d" stroke="#9f3d3d" d="m489 546h1t1 0q1 1 1 4t-3 3q-2 1-3-1t-2-2-1-2v-1h3q2-1 3-1z"/>
  <path id="svg_355" fill="#904c50" stroke="#904c50" d="m72 347l2 1h1v1h1v3h-1v1h-1v1h-2q-2 2-2 2h-1t-1 1q0 0 0-2v-2q1-1 2-1t1-2q0-3 1-3z"/>
  <path id="svg_356" fill="#98535a" stroke="#98535a" d="m464 670h-2q-2 0-3-1t0-3q1-1 3-1t2 2q0 3 0 3z"/>
  <path id="svg_357" fill="#b70e0f" stroke="#b70e0f" d="m97 533l7-1 2 2q1 2 2 3 1 0 2 3 2 2 2 4v1l1 1 1 2v2 1l-1 5q-1 5-5 9-4 3-4 4h-1q0-1-5-1l-4-1q0-1-2-1l-2-1v-1t-1 0q-1-1-1-1v-1t-1 0q-1-1-1-1v-1t-1 0v-1q-1-1-1-1 0-1-2-4l-1-3v-3q-1-3-1-5t5-6q5-3 12-4z"/>
  <path id="svg_359" fill="#a32e2a" stroke="#a32e2a" d="m283 532v1l-1 4q0 4-1 4 0 1 0 1h-1v3q0 3-1 3t-1 1h-1l-1-1h-1q-1 0-2-3l-1-3v-2q0-1 1-2l1-2q1 0 1-1v-1-1l1-1q2-2 4-1t3 1z"/>
  <path id="svg_360" fill="#804945" stroke="#804945" d="m548 214h2v1h1v1h1v3h-1v1h-3q-1 0-2-1v-4q1-1 2-1z"/>
  <path id="svg_361" fill="#a13434" stroke="#a13434" d="m151 542h2 2q3 1 3 3v2l-2 2q-1 1-3 1h-2-1-1v-1q-1-1 0-3 1-3 2-4z"/>
  <path id="svg_362" fill="#ce5e63" stroke="#ce5e63" d="m142 447v-2h1v1l1 2 2 1h2l-2 1q-2 2-2 4 0 1-4 2-3 0-4 1v-1q0-2 2-2 1 0 1-2 0-1 1-1 1-1 0-1v-1h1q1 0 1-2z"/>
  <path id="svg_364" fill="#a03837" stroke="#a03837" d="m185 460h2t1 1q0 1 0 1h1l2 1 2 1h1q1 0 2-2v-1 1l1 2q1 1 1 2l-2 1q-2 1-3 3v1h-3q-1-1-2-1 0 0-3-1h-3v-1q0-2-1-2 0 0 0-1-1-1 1-1 1-1 1-2 1-1 2-2z"/>
  <path id="svg_366" fill="#aa3c39" stroke="#aa3c39" d="m603 471h1l3 1q3 2 4 4v1 1q-1 1-1 2-2 1-5-2l-4-2v-1h-1v-3q0-2 1-2t2 1z"/>
  <path id="svg_367" fill="#e16d6e" stroke="#e16d6e" d="m579 205h2 1 2l-1 3q-1 4 1 6 0 2 1 2v1h-1q-1-1-2-1-2 0-2 1l1 2q-1 0-2-2l-1-1-1-1q-1 0-1-4v-4t1-1q0 0 2-1z"/>
  <path id="svg_369" fill="#8d474a" stroke="#8d474a" d="m337 666q1 1 1 3t-2 2q-3 0-2-3 1-2 3-2z"/>
  <path id="svg_371" fill="#a11210" stroke="#a11210" d="m220 293v-5l2 2q2 1 3 3 0 2 2 2 1 0 1 7 0 6 1 6t1 3q1 3 6 5 4 2 4 3t-2 1-2 0v1q-1-1-5-3-5-2-7-3l-3-1v-3h-2l-1 3q0 4-1 4l-1 1-1 1h-2v-1h-1v-3h-1v-1h-1v-2l1-1v-1h1q0-1 2-3l2-2q1 0 0-1v-2q0-2 1-3 1-2 2-2t1-5z"/>
  <path id="svg_372" fill="#d87577" stroke="#d87577" d="m206 640l2 4q2 4 2 4v1l-2 1q-2 1-3 3v2q-1 0-1-3t-2-4q-2-2-2-3 1-1 2-1t1-1v-1h1t0-1h1q1-1 1-1z"/>
  <path id="svg_373" fill="#de9896" stroke="#de9896" d="m569 258v-1h2q2 0 2 2 0 3 1 3h1t0 2q1 2-1 3l-2 1v-1q0-1-4-2l-5-1h-1-1v-1q0-1 3-1 4-1 4-2 0-2 1-2z"/>
  <path id="svg_375" fill="#a03d3c" stroke="#a03d3c" d="m316 561h4q0 1 0 1h1t1 1v2h-1v1h-5q-1 0-4-2l-3-2v-1q0-1 3-1 2 0 4 1z"/>
  <path id="svg_379" fill="#9b1616" stroke="#9b1616" d="m370 192l1-1v1h3q3 0 6 4 2 3 3 2v-1l3 1q2 0 0 5-2 4-2 5 0 2 1 2v1h-1q0 1 0 1 0 1 0 2v1h-1q-1-1-1-1h-1-2q-2 0-3 1t-3 2l-2 2h-1q-1 0-1-1 0-2-1-2t-1-1q-1-1-3-2l-2-1h-1-1v-1h1v-1h-1-2v-1-1h1 1v1h1 2 2v-1q1-1 1-3l1-2h2q2-1 3-2 0-1-1-1t-2-4q-1-3 1-4z"/>
  <path id="svg_380" fill="#963b36" stroke="#963b36" d="m55 496h7v2q0 1 0 2-2 2-2 2v1h-2l-1 1h-1v-1h-1v-1h-1v-6h1z"/>
  <path id="svg_382" fill="#b9090a" stroke="#b9090a" d="m379 399h2v1q-1 0-1 0v1l-2 1q-2 0-2 2 0 1 1 2 2 1 2 2v1h-1q-2 0-2 1 1 2 2 1 1 0 1 1-1 1-1 2v3l3 5q3 4 3 4v1q0 1-1 1h-1v5l1 2q1 2 1 2v1q0 2-1 2t-1-2q0-1-4-1-3 0-3 1t-1 1l-2 1h-2q-1 1-2 6 0 4 1 4 1-1 1-2 0 0 2 0 2 1 1 4-1 4 0 4v1l1 1v5h1v1h1v1h1v1l5 1q6 2 6 0t1-2v3q0 4 1 4t1 2q1 1 1 2l-1 2q-1 3 1 3t2 1v2h-1q-1 0-1 1l-1 1h-1v1h1v1h1v1q0 1-1 1v1l-1 1q-2 0-2 2-1 2-4 2-2 0-2 1t-1 2-1 3q1 2 0 2h-5l-2 2q-1 2-2 2v1l-3 6q-4 5-5 6-1 0-2 2t-1 3v1h1v1h1v4h-1v1h-1l-1 1h-1l-1-1-1-1t-2-1q-1-1-2-1t-1 0q0-2-1-2-2 0-2 1-1 1-4 1h-2l-1-3q-1-3-1-5l-1-2v-1q-1-1-2-1-2 0-9-3l-6-2v-1q0-1-1-2l-1-1v-1q0-1 1-2 0-1-3-2-4 0-4-2v-1h-2l-1 2q-1 1 0 2t0 1q0 0 0 1h-1v1h-2v-1h-1v-2h-2v-2q-1-2-1-6l-1-4v-1q-1-2-2-6l-2-3v-1q1-1 1-2t2-2h2l-1-1q-1-1-1-1h-1q-1-1-1-1v-1t-2-1q-1-1-2-3t-2-2q-2 0-2-2v-2q0-1 1-2 0-1-2-2-2 0-1-4l1-3v-4q0-4-1-5l-2-1v-1h6v-2h1v-1h1v-1h3v1h-1l-1 1h-1l1 4q0 3 3 4 2 0 2 2v1h1v1h7v-2q0-1 0-3v-2q1-1 1-1h1v-1h1v1h1v1l1-1 1-1v3h2v1h2v3q0 1-1 2v1h-1l-1 1h-1v2h1v1h1v1h2l3 1h3v-3q0-1 0-1v1h3v1h1v1h2v-2h-1v-1h1v-1l-1-1-1-1t-2 0q-2 1-3 0l-1-2v-4h1v-1h1q0-1 1-1 1-2 4-3 3-2 3-3l-1-2h1t2-1q1 0 1-1 1-2 3-4l2-3v-3l1-2q1-2 3-2 1 0 2-3t4-1q2 2 4-1t4-3q3 0 4-3 2-3 4-5t3-1 1 0v-1h1l2-2q2 0 4-1zm-66 71q2-1 3 2 0 2-4 2-3 0-2-2t3-2zm11 12q0-2 2 0 3 0 0 1t-2-1z"/>
  <path id="svg_386" fill="#932f31" stroke="#932f31" d="m522 296v1h-1-1q0 1-2 1l-2 1q-1-1-1-1h-1v-1q0-1-2-1l-1-1h2l2-1h1v-4q0-4 1-5l1-1h2q3 0 3 6-1 5-1 6z"/>
  <path id="svg_389" fill="#a51412" stroke="#a51412" d="m132 109l1-4h5q0 1 0 1h1l1 2q2 1 1 4t-1 3q0 1 0 1h-1v1h-1v1h-2t-2-3q-2-2-2-6z"/>
  <path id="svg_393" fill="#b0211f" stroke="#b0211f" d="m576 200h1v2q-1 2-1 3v2t-1 4l-1 4v2q0 2 0 3v5q0 3-1 4v4l-1 3v2h-2q-1 0-3-7-1-6-2-7h-1q0-1 0-3t2-3q2 0 2-8l-1-7h1v-2h5q1 0 2 0 0-1 1-1z"/>
  <path id="svg_396" fill="#9e3632" stroke="#9e3632" d="m290 467l2-2v1q0 2 2 2 1 0 2 2t3 3 2 2v1h-1q-1 0-2 0h-2-1-1l-2 1h-2v-3-2h-1-1l-1-1q-1 0-1-1v-1h1q1-1 3-2z"/>
  <path id="svg_397" fill="#c14648" stroke="#c14648" d="m223 136v4q-1 1-1 2v1q-1 1-2 1t-2-2q0-1-2-1-3 0-3 1t-1 1h-1v-1l1-1v-3q0-2-2-4l-1-2h1v1h1v1h1l1-1q1-1 3-1 1 0 2 1 0 1 2 2 2 0 3 1z"/>
  <path id="svg_399" fill="#a91213" stroke="#a91213" d="m96 387l5 1h1l1 1q1 0 1 1v1l3 1q3 0 2 2 0 2 0 3h1v1h1v1h1v2h-1v1h-1v1t1 3 2 3q1 1 1 2t-2 2-2 2-4 4q-3 3-8 3-6 0-8-1-3-2-3-3t-1-1-3-7q-3-7-1-13t5-8q3-3 9-2z"/>
  <path id="svg_403" fill="#9f2324" stroke="#9f2324" d="m89 308l2 1 1 3q1 2 4 4t4 3v1h1q1 0 3 4 3 4 4 4l-1 4q-1 4-2 4h-7v-1t-1 0q0-1-1-1t-1-1-1-1h-2q-1 0-1-2 1-1-2-2h-3v-2h-1v-1h-1v-1h1v-1h1v1q0 1 2 1h2v-3h-2q-1 0-1-1 1 0-1-3 0-4 0-5t0-4q-1-3 0-3t1 1q1 1 2 1z"/>
  <path id="svg_404" fill="#ac1212" stroke="#ac1212" d="m521 368v-1l3 2q2 2 3 2v-1h1q1 0 1 0 0 2-2 2-1 1-3 5-1 3-2 4-1 0 0 1 0 2 0 2h1v1h1v1h1l3 1 4 1h-1l-1 1-1 1-2 2q-3 2-3 4-1 2-2 3-1 0 0 2 0 2-1 2t-2 2q-1 3-2 4t-1 7q2 7 2 8 2 2 1 6t-3 6q-2 3-2 3-1-1-4 1-2 0-6-1l-4-1v-1q0-1 2-3l1-3v-1q-1 0-1 0v-1q0-1 1-2t3-3 1-6l-1-3v-1l-1-2v-2h-2v-1h-1v-1h-2v-1h-1v1h-1v8q0 6-2 7t-2 1h-2q-1 0-1 9 1 9 1 10v1h1t0 1h1v2h-1v1h-1t-2-1l-3-1-1 1-2 1-1 1v1l-1 1-2 1-1-1-1-1-2-1h-2v-1h-1v-1h1v-1q0-1 1-2 1-2 1-7v-5q0-1-1-1v-1q-1 0-1 0v-2q0-2 1-4l1-2t1 0q0 0 1-2 0-2-3-9-4-7-7-8h-4q0 1 0 1h-2v-6h1v-1h1v-3h3q1 0 1-1v-2h1q0 1 2 1h2l1-1h1v1q0 1-1 1t0 1q0 2 1 1 0-1 1-1h3q1 0 1 1h1q1 0 1 3v2h8v-1t1-1h8v-1h1v-1h1t0-1q1 0 3-1 3-2 2-6l-1-3v-1l3 1q3 1 5 0 3-2 3-5 0-2-1-4v-3l1-2q2-3 3-3h1t1 0z"/>
  <path id="svg_405" fill="#93423f" stroke="#93423f" d="m459 622q0-2 3-2 2 1 3 4 1 2-1 2-3 0-4-1-1 0-1-3z"/>
  <path id="svg_407" fill="#c28c8c" stroke="#c28c8c" d="m225 116h1 1q1 1 2 3 1 1-1 2h-3v-1q-1 0-1 0v-2q0-2 1-2z"/>
  <path id="svg_408" fill="#9e433e" stroke="#9e433e" d="m175 562l-1-3h2q1 1 2 0h1l1 1q0 2 0 4v2h-3q-1 0-2-4z"/>
  <path id="svg_412" fill="#aa2827" stroke="#aa2827" d="m588 200l3 2q3 3 4 4 0 1 1 2 2 0 2 1v1h-1q-1 0-1 1v1 1q0 1-1 1t-1 2v2t-1-2q0-1-4 0l-4 1v-1q-1 0-1-2-2-2-1-6l1-3h-2-1l3-2q3-3 4-3z"/>
  <path id="svg_413" fill="#981615" stroke="#981615" d="m541 112h4l5 3q4 3 4 3t1 2l1 1v5q0 4-2 6-2 3-5 4-2 0-3 2 0 1-6 1-7 1-10-6-4-7-2-11l2-4v-1l2-1q2-1 2-2t2-1q1-1 5-1z"/>
  <path id="svg_414" fill="#cf8d8d" stroke="#cf8d8d" d="m571 298h-1t-2-1h-2v-1q0-1 0-2v-4q0-3 2-4 2 0 3 2t1 6q-1 4-1 4z"/>
  <path id="svg_415" fill="#a63032" stroke="#a63032" d="m417 583l1-1h4v1l1 1v1l-1 2q0 2-1 2h-1q0-1-2 0t-5 1-4 0l-1 1v-3q-1 0-1-1h1q1-1 2-1h1v-1q0-1 1-1h4l1-1z"/>
  <path id="svg_417" fill="#b03131" stroke="#b03131" d="m549 252v-1l2 1q3 0 3 1v1q-1 0-1 1v1q-1 0 0 2 1 3-2 4l-2 2v-1h-1v-3q0-4 0-5v-1-1q0-1 1-1z"/>
  <path id="svg_419" fill="#a43838" stroke="#a43838" d="m233 515h1 1q1 1 1 1l1 2v2l-1 1q0 1-2 1h-1l-1-1v-1q0-1-2 0h-1v-2-2h1q2 0 3-1z"/>
  <path id="svg_420" fill="#961819" stroke="#961819" d="m199 158h1v-1h1v1 1l5 1q4 0 4 0h1 1l1 1q1 1 1 3 0 3 0 4v1l-2 3q-2 3-2 6v2l-2 4q-2 3-5 4-3 2-3 4v3h-1l-1-1h-1-1v1-1q0-1 0-2 0-2-3-3t-3-3q0-1-2-2h-1l-2-1h-2v-1h-1 2q3 0 4 0 2 0 2-4 1-3 2-3 1-1 1-2-1-2 0-7l1-4 2-2q2-1 2-2h1z"/>
  <path id="svg_421" fill="#cb3a3b" stroke="#cb3a3b" d="m480 239l1 2q1 2 1 4v2q-1-1-4 0-2 0-2 1l1 2h-1q-1 0-4-1l-3-1h3v-3h-1v-1h-1v-2h1v-1h1q0-1 0-1h4q3 0 4-1z"/>
  <path id="svg_422" fill="#e3979b" stroke="#e3979b" d="m503 237h2 1q0 1 0 1h1t1 1v1q0 1 0 2t-2 3l-3 2v-1q1-1 1-3t-1-3l-2-2t2-1z"/>
  <path id="svg_424" fill="#912727" stroke="#912727" d="m447 238h3q2 1 3 4 1 2 4 4 3 0 4 1h1v1h-2v1q-1-1-2-1t-4 1l-4 2h-2q-1-1-2-1-2-2-3-3l-1-2v-1h-3v-1h-1v-1h2q2 0 2-2-1-2 2-2 2 0 3 0z"/>
  <path id="svg_425" fill="#961b1c" stroke="#961b1c" d="m231 178l-1-3 2 1q2 0 4 2 2 3 3 2 1 0 1 2v1l-2 5q-2 4-2 5-1 1-1 1h-1q-2 0-6 1l-3 1h-1-1v-1h-1v-2-2l1-1v-2h1q2 0 3-1 1 0 1-3 1-2 2-2t1-1q1-1 0-3z"/>
  <path id="svg_427" fill="#a83434" stroke="#a83434" d="m368 604l3 1-1 3q-2 2-2 4v2l1 1q1 1 1 2t0 4v3h-1v-1h-1v-1h-1l-1 1q-1 0-2-1l-1-2v-2l-1-1v-3q0-1 0-2 0 0 0-3-1-3 1-4t5-1z"/>
  <path id="svg_429" fill="#aa3e3c" stroke="#aa3e3c" d="m173 519l3 1q4 1 4 2t1 1h1l-1 1q-1 1-1 2v2h-1l-1 1v-1q0-2-3-1t-3-1l-1-2q-1-1-1-2 0 0 1-1l1-1q1 0 1-1z"/>
  <path id="svg_430" fill="#a4413a" stroke="#a4413a" d="m177 547h1v2q0 1-1 3v1q0 1 1 1 0 1 1 3v2h-1q-1 1-2 0h-2t-1-1q0-1-3 0l-3 1v-2h1v-1h2v-2q0-2 2-3l2-1v-1h1v-1h2v-1z"/>
  <path id="svg_432" fill="#bb7471" stroke="#bb7471" d="m281 125q2-1 5 2 2 3 3 5 1 3 0 4-1 0-5-3-3-3-4-6 0-2 1-2z"/>
  <path id="svg_433" fill="#923f41" stroke="#923f41" d="m492 281v-1h2 2v1l1 1q1 2 0 3l-1 1v1 1q0 1-1 0-1 0-3 0l-2-1q0-1 1-3l1-2v-1z"/>
  <path id="svg_434" fill="#aa1e1f" stroke="#aa1e1f" d="m411 491v2l1 2q0 3 1 3 1 1 2 2 1 2 1 4v1h-1v1h-1v1h-1v1h-1v1h-1v1h-1v-2h-1v-1q-1 0-2-3-1-2-4-2h-3l-2-1q-2 0-1 1 1 2 1 4v1h-1v-1h-3v-3h-1v-1h-2v-1h-1v-2h-1v-1q1 0 2-3t1-3l-1-1v-1q1 0 1-1v-1h-1v-1h-1v-1h2v1h1v1h1l8-2q7-1 8 1 0 2 1 4z"/>
  <path id="svg_437" fill="#9b3e41" stroke="#9b3e41" d="m129 550v1q-1 0-1 1v1h-2q-2-1-4-4l-1-4h3q3 1 4 2 0 1 1 3z"/>
  <path id="svg_440" fill="#b10d0d" stroke="#b10d0d" d="m221 318v-4l3 1q2 1 7 3 4 2 5 3l1 1q1 1 1 2h-2q-2 0-2 1t-2 1l-1 1-1 3q0 3 0 8 2 5 2 6 0 2 1 2l1 1q0 1 2 1h1v2l-1 1v4l-1 3q-1 4-1 4v1l-2 3q-2 2-1 4 0 2 1 2t2-2q1-3 2-3t1 5q0 4 1 3 2-1 4-1h1v1l-1 1q-2 2-2 2h-1l-1 2q-2 2-4 2-2 1-2 2v1h-1v1h-1v2l-1 2v2l-2 3q-1 3-2 3v-1q-1-1-1-2t-2-2q-3-1-2-2v-1t1-1 1-5q0-5-2-6l-2-1q1-1 1-1h1t0-1h-1v-1q0-1-1-1-1-1-2-2-1-2-2-2t-1-1 1-1q1-1-2-1l-3-1q-1 0-4 1l-3 2v-1h-2v-1h-1v-1h1v-9h2v2q0 2 0 2 1 0 4 0h2v-2h-1v-1h1v-5h-1l-1-1h-3l-5 1q-4 0-5 3t-1 4v1h-8v1t-3 0h-3q-2 0-2-3-1-2-2-2h-1q-1 0-1 0v1t-1 1h-7l-1 1-1 1h-1l-1 1-2 1h-2q-1 0-1 1h-1q-2 1-6 2l-4 2v-1q0-1 0-2 0 0-2-2-3-1-4-3 0-2-4-3l-3-2v-6h1t2-3l3-3q1 0 0-2 0-3 3-4l2-1h1v-1h3v-4h-1l-1-1h-4q-3-1-4 0h-2v-1h1v-1h-1v-1h-1v-1h-1v-1h1v-1h1v-2h5l3 1q4 0 4-2t2-3 4-1h3t1 1l1 1q1 0 1 2v2l-1 1v1h2v-1q1 0 1-1t3-2h3q1 0 1 1l-1 2q0 2 2 3 3 0 3 2-1 3-1 4v1h1v1h3l4-2q4 0 4-1h1q0-1 0-1 1 0 1-2v-1l1 1 1 1v1h2v2q0 1-1 4v2h2v-1h1v-1q0-2 2-3l1-1 2 1q2 1 5 1 2 0 2-1 1-1 1-1h1q1 0 0-1v-2h1q1 0 1-1 0-2 2-4l2-1q1-1 1-1h3q3 0 5 0t2-4z"/>
  <path id="svg_441" fill="#934f4f" stroke="#934f4f" d="m638 606l-1 2h-2q-3-1-3-2 0-2 2-3t3-1q1 1 1 4z"/>
  <path id="svg_444" fill="#8b1f24" stroke="#8b1f24" d="m200 93l1-1h3 2l1 1 1 1 1 1q1 1 1 4v3t-1 1v1h-1t-4 1l-3 1q-1-1-1-1-1-1-2-2 0-1-1-3l-1-3 1-1 1-1v-1-1h2z"/>
  <path id="svg_445" fill="#96454e" stroke="#96454e" d="m574 418h1 1q2 0 2 2-1 2-2 2t-2 0h-1v-1-1-1q0-1 1-1z"/>
  <path id="svg_449" fill="#b76d6d" stroke="#b76d6d" d="m138 486h2-2q-2 1-2 2 0 2-1 2h-1l-2 1q-1 0-1 1-1 1-1 2v1t0-2v-3h-1q-1 0-2-3l-1-2v-1q1 0 6 0 5 2 6 2z"/>
  <path id="svg_450" fill="#971e1e" stroke="#971e1e" d="m354 161v-1h4q5 0 5 1t1 1 2 2q0 2 0 2h2l-1 2q-1 3 0 4 1 2 5 2 3 1 3 2 1 1 1 4v3q-1 1-4 1-3 1-3 3l1 2h-1v1h-1t-1 0-1-2-1-4q-2-1-3 2-2 3-1 4v1h-2q-2 1-3 2 0 1-4 0-5-1-4 1l2 1h-2l-2-1h-1l-1 1h-2v-1h-1v-1h1v-1h2v-2l-1-2v-1l1-1q2 0 3-3t2-4 3-1h4v-1l-1-1-1-1q0-1-1-1t-3-5l-2-4h1q1 0 1 1v1l1-1q0-2 1-2t1-1v-1h1v-1z"/>
  <path id="svg_451" fill="#b02023" stroke="#b02023" d="m384 612h1v-1h1v1h3v1h1v1h1v1h1l-1 5q-1 4-2 5t-3 1h-4t-1-1l-1-1h-1v-1h-1v-8l3-2q3-1 3-1z"/>
  <path id="svg_452" fill="#9f1212" stroke="#9f1212" d="m153 183h1v1l6 1q5 1 8 4 2 3 3 3v1q0 1 1 1v2q0 3-1 4v1l-1 3q0 3-1 6l-1 2 1 2q1 1 1 2h-1-1q-1 0-4 0h-2t-1 0v1h-1q-1 1-5 0l-4-1q-1-1-3-3-2-1-4-5l-1-4q-1-1-3-3t-2-5q0-4 0-6l2-1v-1-1h1v-1l5-1q6-1 7-2z"/>
  <path id="svg_454" fill="#bf3433" stroke="#bf3433" d="m462 450h4l1 1q1 1 5 1t4-1v-1h2v2h-1l-1 1-1 1h-1v1l1 1v1h-3q-1-1-4-1h-4v-1h-1v-1h-1l-2-1q-2 0-2-1t4-2z"/>
  <path id="svg_455" fill="#e86665" stroke="#e86665" d="m233 640v1l-1 3q0 2 0 3 0 0 1 1h-1q-1 0-2-1l-2-1t-2-1h-1v-1q1-1 1-2l1-2 2-1q2-1 3 0 0 1 1 1z"/>
  <path id="svg_458" fill="#86403b" stroke="#86403b" d="m406 76h-1-1q0-1-1-1v1-4q1-3 3-3t2 3q0 2 0 3-1 1-2 1z"/>
  <path id="svg_465" fill="#a64245" stroke="#a64245" d="m538 384v-4q1 0 3 1h2q0 1 1 1t1 2q1 1-3 2l-4 1t0-3z"/>
  <path id="svg_467" fill="#8a5556" stroke="#8a5556" d="m164 682q0-2 2-1 2 0 1 2 0 1-2 1-1 0-1-2z"/>
  <path id="svg_468" fill="#842f30" stroke="#842f30" d="m420 131q4-1 5 1 1 1 0 4-1 2-5 2-3 0-3-3-1-4 3-4z"/>
  <path id="svg_469" fill="#915053" stroke="#915053" d="m486 561q0-3 1-2 0 1 1 1 2 0 2 2 0 3-2 2-2 0-2-3z"/>
  <path id="svg_472" fill="#965560" stroke="#965560" d="m668 592l2-1h1v1h1v1l1 1 1 1v1h-1v1h-1l-1-1h-3v-4z"/>
  <path id="svg_475" fill="#a30f0f" stroke="#a30f0f" d="m67 156v-1l4 3q3 4 4 4 0 0 1 1v1h1v1q1 0 1 1 0 0 0 1h1l1 3q2 2 2 3h1v1t1 1q0 1 0 1h1l3 5q2 5 4 6 3 1 4 2h2q0 1 0 1h1l6 2q6 2 7 3h1v2h-1v-1h-2v2l1 1 1 1v1l1 1 1 1 1 2q1 1 3 2t2 3q2 1 2 4 0 2-1 2t-1 1h-1q-1 0 0 3t1 4v2l1 1 1 1t0 1h1q0 1 1 1l1 5q1 5 1 7v3h1l2 7q1 7 2 8l1 2v2l1 2 1 2h3v2h2l-1 3q-2 3 1 7t3 4l1 2q1 1 0 2t-1 6v6l1 2 1 1v1h1v3h2v3h-2q-3 0-3 2-1 2-2 2-2 1-2 2l-3 2q-3 2-4 2h-5v-2l-1-1-1-1v-1h1v-1q1 0 1-1t-2-2-2-3l-1-2q1-1 1-2t3-2q2-2 2-6v-4q-1 0-1-2v-1h-1v-1h-1q-1 0-2-1v-1t-1-4l-1-3v-1t-1 0v-7h-1q-2 1-6 1t-8-1l-4-2v-1l-1-1q-1-1-2-2l-1-1v-4q0-2 2-3l1-1h1t0-1q1-1 1-3 1-3 0-6l-1-2q0-1-1-1v-1q-1 0-1 0t-1-1q0-1-3-1-2 0-2-1 0-2-1-3l-1-2v-1h-1v-1h-2q-1-1-1-2l-2-1v-4t4-1q3-1 3-4-1-2-5-10l-4-7v-1q0-1-1-4 0-4 3-5 2-1 1-5-1-5-2-5-1-1-5-10-5-9-6-9t-2-2l-1-2q-1-1-1-1v-1q0-1-1-2z"/>
  <path id="svg_476" fill="#753f3c" stroke="#753f3c" d="m191 80v1 1q0 1-2 1-1 0-3-3l-2-4v-1q0-1 3 2t4 3z"/>
  <path id="svg_477" fill="#953030" stroke="#953030" d="m552 228v2 2 2l2 1q2 1 3 1h1v2 1h-1v1h-3-3l-1-1h-1v-1q0-1-3-2t-4 1v1l-1 1q-1 0-1-2l1-2q1 0 2-5l1-5h3q3 1 4 1 1 1 1 2z"/>
  <path id="svg_480" fill="#973b3d" stroke="#973b3d" d="m522 273l1 1h1 1v1 1h1 1l1-1h1v1 1h-1l-1 1h-1q-1 0-1 1-1 1-3 1h-2-1l-1-1h-1-1v-1h-1q-1 0-1-1v-1l2-2q1-2 3-2t3 1z"/>
  <path id="svg_482" fill="#b79e9e" stroke="#b79e9e" d="m531 299h1v2h2l2 1v3h-1v1h-1v1h-1v-1h-2l-1-1q-2-1-1-2l1-2h-1v-1h-3q0-1-1-1v-1q0-1 3 0 2 0 3 1z"/>
  <path id="svg_484" fill="#834f4f" stroke="#834f4f" d="m462 118q4-1 4 0t-1 1-1 1q-1 2-4 2-2 0-2-2 1-2 4-2z"/>
  <path id="svg_487" fill="#873436" stroke="#873436" d="m428 242h1 1t1 1h1l2 1q1 0 2 2 0 2 1 3h1v1h-1q-1 0-2 1-1 0-2-2-1-3-3-3t-1 2q0 3 2 4l2 2q-1 1-5 4l-4 2h-1q-1 0 0-1l1-1t0-1q0 0 1-6t1-7l1-1h1q0-1 0-1z"/>
  <path id="svg_489" fill="#87585b" stroke="#87585b" d="m860 448h2q2 1 3 1v1h1v2h-1v1h-1v1h-2v-1h-1v-1q-1 0-1 0l-1-1v-1q1-2 1-2z"/>
  <path id="svg_490" fill="#885158" stroke="#885158" d="m390 671q0-1 2-1 2 1 2 2-1 2-3 1-1 0-1-2z"/>
  <path id="svg_491" fill="#ae0b0b" stroke="#ae0b0b" d="m459 322h1v2q0 1-2 0-1 0-2 1 0 1 1 1t1 1v4l1 1 1 1v1q0 1 4 1 3 0 3 3-1 2-1 3v1l1 2v2h3v1l-1 1q-1 0-1 4 2 5 3 7t2 3v2l1 3q0 3 1 8l1 5 2 6q2 7 3 8v1h-1q0-1-1-1h-3q-1 0-1 1-1 1-2 0t-3-2l-2-2v2q0 1-1 1h-3v3l-1 3q-1 2 0 2t1 1h1v3h-3v1h-1v1h-2l-1-1-1-1h-1v-1h-1q0-1-2-2-1-1-2-2l-1-1q0-1-1-1t-2-1l-2-2v-3l1-3q2-4 4-4 3-2 3-2 1 0 1 0v-1t0-5v-6q0-2 0-3-1-1-2 0 0 1-1-1-1-1-3-1t-3 0h-3q0-1-3-3l-3-2-1-1h-1v2q0 2-1 3-1 2-5 2l-4 1v-1h-1l-1-1v-8h1v-1h1v-1l1-1v-1h1q0 1 2 1h1l3-1q3-1 4-1h1v-1h1v-1h1v-1h1v-2l-1-1v-2q-1-1-2-2l-1-2q0-1-1-1h-1q0 1-1 1t-1-4l1-3q1 0 1 1 0 0 1-4 0-4 1-4t2-2v-1h1v-1h1l2-1 1-1h1v1h1v-1h1l1-1 1-1t1 0v-1h3q3 1 4 1 2 2 3 2zm15 69h1v1q0 1-1 1-2-1-2-1h1l1-1z"/>
  <path id="svg_492" fill="#cb5051" stroke="#cb5051" d="m201 619l3-1h8t0 1h1l1 1q1 0 2 1h1v1h2v2h-2v1h-9q-3-1-4-1h-1t-3-2l-3-1v-1q1 0 1 0v-1h3z"/>
  <path id="svg_493" fill="#8e3d4a" stroke="#8e3d4a" d="m388 630h2l1 2q0 3-2 3h-2q-1 0-1-1v-1-1q0-2 2-2z"/>
  <path id="svg_497" fill="#a04748" stroke="#a04748" d="m40 499q4 0 4 3t-4 4q-3 0-3-4 1-3 3-3z"/>
  <path id="svg_498" fill="#a71d1d" stroke="#a71d1d" d="m417 289l-1-4h1q0 1 1 1l1 1 1 1h1v1h1v1h1v1l1 3q1 2 2 2h2l2 3q1 3 1 4h2q2-1 2 0l-1 1q-2 1-1 2 0 1 2 2 3 1 3 2v1q0 1 0 1h1l1 2q0 2 2 4 1 0 1 1h1v1h4l-1 1-1 1h-1v1h-1v-1h-1l-1 1-2 1h-1v1h-1q0-1-2-1h-1t0-3q1-2-4-2h-5v-1t-1 0v-4t1-1q0-1-1-3l-1-1q-1-1-2-1v-1q0-1 1-3 0-1-2-2h-2t0-3l1-2v-1q0-1-1-1t-1-1v-1t-1-4z"/>
  <path id="svg_500" fill="#980e0e" stroke="#980e0e" d="m387 116v1l-1 1q-1 0 0 1h1q0 1 1 1v1 1h2q2 0 3 1t3 2q1 0 2 2 0 1 2 2t3 3q0 1 1 1t1 1v2l1 4q1 3 2 3 1 1 1 1h-1t0 1h1q0 1 1 1v2q-1 1 0 2 0 0 0 2-2 1-1 2 0 2-1 2-2 0-2 2v1l-1 1q-1 2-1 4 0 1 0 2v2q-1 0-1 1h-2q-2-1-4 1-2 0-2-2t-1-2-2 2l-1 2h-1t-2 0h-1v-1q-1-1-2-1-1-1-1 0t-2 0q-3 0-8-1l-6-1q0-1-1-1v-1q1-1 1-3t-2-2-2-1q1-2 0-4v-3-2q0-2-1-4l-1-2v-1q0-2 0-10 2-8 1-8l-1-1q0-1 1-1h1l2-1 1-1 3-1q2-1 2-2h1v1q1 0 1 0v-1l2-4q2-3 6-3 3 0 4 2 2 3 1 4z"/>
  <path id="svg_502" fill="#833e3f" stroke="#833e3f" d="m180 282q4 0 4 2t-2 2q-3 0-4-2t2-2z"/>
  <path id="svg_506" fill="#bb3e3c" stroke="#bb3e3c" d="m218 84l1-4q1 0 1 4v4l1 1v1h2 2v-2l1-2 1 2q1 2 2 2v1l-1 3q0 4 0 4-1 0-1 1h-3q-3-1-5-3l-2-2v-2q-1-1-1-2v-1h1q0-1 1-5z"/>
  <path id="svg_507" fill="#a73130" stroke="#a73130" d="m485 606l1-1 1 1q1 1 2 1h1l1 2q1 2 2 2h1v1q1 1 2 1 0 0 0 4t-2 4q-3 0-6-2-3-4-4-6l-2-3v-1l1-1q1-1 2-2z"/>
  <path id="svg_508" fill="#c0898a" stroke="#c0898a" d="m653 454q2 0 3 2 0 2-3 2t-3-2 3-2z"/>
  <path id="svg_509" fill="#f27d7b" stroke="#f27d7b" d="m131 330l3-1v2t-1 1-3 1l-3 1v-2q1-2 4-2z"/>
  <path id="svg_514" fill="#a01e1d" stroke="#a01e1d" d="m518 346l3-1 1 1q2 0 2 1t2 1 2 1 0 2q-1 1 0 1v1q0 1 1 1h1l1 2q1 1 1 2v2q-1 0-4 2-2 2-6 2l-3 1h-1v-1l-1-1-1-1v-10q0-5 2-6z"/>
  <path id="svg_515" fill="#a34344" stroke="#a34344" d="m572 436l4 1q4 1 5 3 0 1-5 1t-5-1v-3q1 0 1-1z"/>
  <path id="svg_516" fill="#cc5857" stroke="#cc5857" d="m132 105h1l-1 4q0 4 2 6 2 3 2 3h1t-3 0h-4-4q-3 0-3-1h-1v-1q0-2-1-2-1-1-1-2 0 0 0-1l1-1h1 1l3-2q4-1 4-2t2-1z"/>
  <path id="svg_518" fill="#9c2e2a" stroke="#9c2e2a" d="m256 546h3t1 1l-1 3q-1 4-1 4t-1 1l-1 1q-1 0-2-1v-7q1 0 1-1t1-1z"/>
  <path id="svg_520" fill="#a94647" stroke="#a94647" d="m544 365h1l3 2q2 3 4 3t2-1q0 0 1-1h1q2 1 2 2v1h-1v1h-1q-1 0-3 1l-2 1h-3-2v-1l-1-2q-1-2-2-4t1-2z"/>
  <path id="svg_524" fill="#a61717" stroke="#a61717" d="m182 375l3-2 3 2q2 1 2 2h1l1 1q0 2 0 3v2q0 1 4 2 3 1 4 1h4l5 2q5 2 6 2h5v1q-1 1 2 2 2 1 2 2t1 2v1q-1 1-1 2 0 0-1 0v1q-1 0-1 1h-2q-1 0-2 1-2 1-3-1-1-3-5-4h-4t-4-2l-5-2h-1v1h1v1l2 1q3 1 3 2v1h-1l-1 1-2 1q-3 2-3 2h-1v1h-1v1h-1l-1 1h-4v-1l-1-1v-1h-3v-1q-1 0-1 0 0-1 2-1 1 0 2-2v-1q0-1-1-1t-1-3q0-2-2-2-2-1-4 1l-2 1v-1t1 0v-2q-1 0-1 0v-1q0-1-2-3v-2h-1l-1-1v-1h1q1 0 1-2v-3h1l1-1h1v-1h1q0-1 4-2z"/>
  <path id="svg_528" fill="#971d1c" stroke="#971d1c" d="m63 198h1l1 1 1 1h2l2 4q2 4 2 5t0 3v2h-1q-1 0-1 1l-1 1q-1 0-3 1h-1q-1 0-1 1h-1q-1 0-4-2-3 0-4-2l-1-1v-4h-1v-1h1v-8h5l2-1 2-1z"/>
  <path id="svg_531" fill="#9d2c2e" stroke="#9d2c2e" d="m390 170h1q-1 1-2 2-1 0-1 1v5h1l1 1 2 1h2l1 1h1v1t-2 0q-1 1-1 2t-3 3q-2 1-4 1h-3v-1q0-1-1-1h-2v-2h-1v-6l1-5v-1h3q3-1 4-2h1q2 0 2 0z"/>
  <path id="svg_533" fill="#b91313" stroke="#b91313" d="m368 515l3-6v4l-1 4v1q0 2 1 2l2 3q1 3 2 3l1 1q0 1 4 1 3 0 4 1 0 1 0 1h1l2 4q1 5 2 5v1h1q2 0 2-1l1 1q1 0 1 0v3q1 3 2 3 2 1 2 4t1 3l1 1t2 0q2-1 3-2 1 0 1 0t0 1h1v1q1 0 1 1v2l-1 1v2h2v1h1v1h1v1h-1v1h-2l-2-1q-2-1-4 1l-2 1h-1q-1 0-1 5 0 6-1 6t-1-1l-1 1-1 2v2h-2l-2 1h-1v-1q-1 0-1 0-1 0-3 0t-3-1v-2q1-1 1-1 1 0 1-1v-1h-2l-2-1q-2 0-2 1t-3 1l-2 1v-1h-1v-3q0-3 2-3t2-1-2-2-2-2-1-6v-6q-1 0-1 0 0-1-1-1v-1q1-2 0-4v-2q-1-1-1-2 0-2 0-6l-2-5v-6h-2v4q0 1 0 2v1h-1v1h-1v1h-3l1-1v-1h2v-4h-1v-1h-1v-1q0-1 1-3t2-2q1-1 5-6z"/>
  <path id="svg_534" fill="#e48078" stroke="#e48078" d="m493 444h2v1h1v5l2-2q1-2 2-2h1v1q-1 1-2 3-1 1-6 1l-4 1-3-1-2-1h-1v-1l1-1 2-1 1-1 3 1q2 1 2 1h1v-1h1v-2h-1q0-1 0-1z"/>
  <path id="svg_535" fill="#9f5050" stroke="#9f5050" d="m716 572h1v2q-1 0-1 2 0 1-3 2h-3t-1-2l-1-1 2-2q1-2 3-2 2 1 3 1z"/>
  <path id="svg_539" fill="#bb1315" stroke="#bb1315" d="m532 598t-4 1l-3 1h-3-4l-2-1q-1-1-4-3t-4-10q-2-7-1-7t1-1q0-2 1-5 2-3 3-3h1v-1h1q2 0 2-1t6-1q7 1 8 1 2 0 2 1t2 2 4 7q2 7 1 11t-2 4-3 2q-1 3-2 3z"/>
  <path id="svg_540" fill="#842526" stroke="#842526" d="m734 84v-1h-1v-1h-1v-3q0-3 2-5t6 0q4 0 4 5t-1 6-5 0q-4 0-4-1z"/>
  <path id="svg_541" fill="#9e2a29" stroke="#9e2a29" d="m286 483l2-1 2-1q1 0 0 5 0 4 0 5 2 1 2 0v-1h2q2 0 2 2 0 0-2 1-2 0-2 1v1 1q0 1 1 2v1h-1q-1 0-2-3 0-2-1-2t-1-1-4-1h-5v-1h1l1-1h1v-1l1-2q1-2 3-4z"/>
  <path id="svg_544" fill="#b41111" stroke="#b41111" d="m268 362l1-3h2l1 1q1 0 1 1h1v2h1v1h1v-1h1v-1h2v1h1v2q1 1 3 3 3 2 3 3t2 1q1 0 2 2 2 2 1 2t1 1q1 0 1-1t1 0q2 0 2 2 1 2 4 2t4 1q0 1 2 2 2 0 2 1v1t-3 1h-2l-1 2q-2 2 1 3t4 4q2 3 3 4v4q-1 3 0 3h2v1q0 1-1 1t-3 0h-1v1h-1v1h-1v1h-1v2l1 1v1h2l1 1q2 1 0 4 0 2-1 2v1q0 1-1 1h-1l2 6q3 7 3 10v3t-1 1h-2q-2 0-3 0-2 0-2-3 0-2-2-2h-1v-1h-3v1h-1v1h-1v2h-6v1l-2 2q-2 2-2 5 0 2-1 2 0 0-1 1h-1l-4 1q-3 2-4 4t-1 4v2h-2v2l-1 4v4h1v3l-1 1-1 2v1l1 1v2h2v2q0 2-1 2t-1-1-1-1h-1v1h-1v5l1 1 1 1v3h1l1-1h3q3 0 3-3 1-2 2-2h1v1h5q4 0 4 1t1 1 1 2q1 2 2 2 0 0 0 1h1l1 1q1 2 3 2h2v1h1v4h-1v1h-1v3h-1l-1-1h-2v1h-1v1h-1l-1 1-1 1h-4q-2 0-4-1-3-1-3-3t-1-2 0-1v-2h1v-1h-2v-1h-1v1h-1v1h-1l-2 3q-2 3-3 3t-2-2-1 1q-2 2-2 2v1h-1v1h-4v1h-1q-1 1-2 1-2 2-6 0l-5-2q-1-1-3-4l-3-3v-3q-1-2-3-3t-2-7q0-5-2-4-1 0-3 0l-2-1v-1q1-2 1-6 0-3-3-6-3-4-7-4t-6-3q-1-3-6-3h-8l-1-1h-1v-6l1-1 1-1v-1h5q3 0 7 0 5 0 6 0 1-2 0-2t0-1q0-1 6 0 7 1 8 1h2v-2h1v-1h1q0-1 0-1h3l3 1h3v2h-1l-1 1h-1q-1 0-2 0h-2v1h-1v1h-1v1h1v1h1l4 1 4 1h9v-2l-1-1v-2h-3q-3 0-3-1v-2t1-2q1-3-2-6l-2-2h1t4-3l4-3h2q1 0 2-3v-3h2v-1h1v-1h2v-1l-1-1v-1h-1v1h-4q-1 0-2 1-1 0-1 1 0 2-1 2l-1-1v-1h-3v-1h-1v-2q0-1-1-1-1-1 0-2l1-2q1 0 2-1 2-1 1-1-1-1-3-4t2-8l3-4 1-2q2-2 4-2 1 0 1 0h1v-1h-1q0-1-1-3t-2-2l-2-1v-1q0-2-1-2 1-1 1-1h1q1 0 1-5l1-4h1t1 0h3t2 0q1-1 1-2 1-2 3-4 2-3 2-4-1 0 0-1 0-1 0-5zm-22 107q2-1 2 3t0 6q-2 2-2 4 0 1-1 0 0-1-2-2-3-1-2-3 1-3 2-4t1-2 2-2z"/>
  <path id="svg_550" fill="#ac1719" stroke="#ac1719" d="m547 435l1-1 4 1q4 1 6 2t2 3v2 3q0 3-3 5-2 2-2 3l-1 1-1 1q-1 1-1 1h-4q-3 0-6-3l-3-2v-1q-1-1 0-4l1-4v-1l2-2q2-3 3-3h1l1-1z"/>
  <path id="svg_552" fill="#745054" stroke="#745054" d="m821 394q0-2 2-2 3 1 2 3 0 1-2 2-2 0-2-3z"/>
  <path id="svg_553" fill="#971e1f" stroke="#971e1f" d="m520 242v-1l3 1q3 1 3 2 0 0 1 0v2h2t1 1q0 1 0 1h1l2 2q3 3 2 6-1 4-1 4h-1q-1 0-1-1-1-1-2-3-1-3-2-3t-2 2q0 2-4 3-3 1-3 2v2q-1 1-1 2h-1v1h-1v-1h-2l-1 1-1 1h-2v-4h-1v-1h-1v-4l4-5q3-4 4-5 1 0 1-2t1-3q2 0 2 0z"/>
  <path id="svg_558" fill="#9e474c" stroke="#9e474c" d="m578 630h-2v-3q0-3 3-3t3 3-1 3-3 0z"/>
  <path id="svg_562" fill="#b51110" stroke="#b51110" d="m151 484v2l-1 6q0 7 2 7 1 0 1 3-1 2-1 2t-1 1l-1 1h1v1h1v1h1l1 1 2 1q1 1 1 4v3l-1 1q0 2-1 4l-1 1v2l-1 3q-1 2-2 3h-1v2h-1v1h-1v1l-4 2q-4 1-6 2h-2v-1t-4-2l-3-1v-1q-1 0-1 0-1 0-2-1 0-1-2-5l-2-5v-3q0-2 0-4 0-1 2-6t5-7l4-3h3v-2h-2q-2 0-3-1-1 0-1-1v-4h1l1-1 2-1h1q1 0 1-2 0-1 2-2h2l2-1q2-1 2-2t3-1 4 2z"/>
  <path id="svg_563" fill="#865f60" stroke="#865f60" d="m771 398q2 0 2 1 1 2-2 2-2 1-2-1 1-2 2-2z"/>
  <path id="svg_564" fill="#a6595e" stroke="#a6595e" d="m605 487q2-1 2 2-1 3-1 3-2 0-2-2 0-3 1-3z"/>
  <path id="svg_565" fill="#853f3f" stroke="#853f3f" d="m406 97q0-3 4-6 4-2 2 3t-4 6q-2 0-2-3z"/>
  <path id="svg_566" fill="#a33432" stroke="#a33432" d="m417 519h1v1h3v1h1v3h-1v1h1v2l-1 1-1 1-1 1q-1 2-1 2h-1q-1 0-1 0v1q-1-1-2 0-2 0-2-2v-2h-1v-3q0-2 1-2t2-2v-2h3v-1z"/>
  <path id="svg_570" fill="#8f3939" stroke="#8f3939" d="m155 478v-1h1 1l-1 3q0 2 0 3t5 1 5 1q0 0 1 1v1q-1 0-1 0 0 1-6 1-6 1-6 0v-2-1q0-1 0-1v-1-2-2l1-1z"/>
  <path id="svg_572" fill="#933e3b" stroke="#933e3b" d="m137 467h1q2 0 2 1 0 2-1 2t-1 2q0 1 2 1l2 1h1v1h1v3h-8v-1q0-1-1-1 0 0-4-1l-4-1v-1l-1-1v-1h-1v-2h1l1 1 5-1q4 0 4-1t1-1z"/>
  <path id="svg_577" fill="#932626" stroke="#932626" d="m234 206h1t1 1v4q-1 5-2 5-2 0-2 3v3h-1v1h1v1h-1q-1 0-1 1t-2 1q-1 1-1 0-1-1-7-1l-6-1v-2h5q1 0 4-4 3-2 3-5v-3l4-2q3-2 4-2z"/>
  <path id="svg_578" fill="#983934" stroke="#983934" d="m269 592l2-1h2l1 2q0 1 1 2h1q0 1 1 1h1l-1 4q-1 4-2 4h-1-1q-1 0-1-2l-1-3v-1h1t-2-1q-1-1-1-3l-1-2h1z"/>
  <path id="svg_579" fill="#9f3638" stroke="#9f3638" d="m52 137v-1h2q2 1 2 2t1 1h1q0 1 0 1h1t1 1q0 1 0 1h1q1 1 1 2l1 2q1 1 1 2v1 1h-1q-1 0-1 1-1-1-3-2l-2-2v-1q-1 0-2-2l-2-3v-1q-1-2-1-3z"/>
  <path id="svg_580" fill="#b27c7c" stroke="#b27c7c" d="m165 554q-1 1-1 2v2q-1 2-3 2t-2 2q-1 1-1 1v1h-1v-1h-1v-1q0-2-1-2h-1v1l-1-1q-1-2-1-4l-1-2h1t1 0h4l1 1q0 2 1 2t2-2q1-3 2-3t1 1 1 1z"/>
  <path id="svg_586" fill="#cb7173" stroke="#cb7173" d="m217 96v-2l2 2q2 2 5 2 2 0 3 0h1v1q0 1-4 2-3 1-4 0l-1-1q-1-1-1-1v-1t-1-2z"/>
  <path id="svg_588" fill="#cc1010" stroke="#cc1010" d="m340 571v-2h2q1 1 2 1l1 1h1v1 1h3q3 1 5 1 2 1 4 5t2 7v2 1q1 1-1 2-1 0-2 1-1 0-1 0v1l-2 1q-2 1-1 6 1 4 1 6 2 1 2 4v2l1 2v1 5q1 6 1 6v1q0 1-2 3t-2 3v1l-1 1q-1 1-2 1l-5 1h-6v-1t-1 0q0 0-1-1t-2-4q-2-3-2-7v-3l-1 1q-1 0-1 1h-1-2-2v-1l1-2v-1q0-1 1-1t1-2l-1-1h1q1-1 1-6 1-5-1-8l-1-3h1t0-1v-1t-1-6l-1-6v-2q0-3 1-4t6-3q6-2 5-4z"/>
  <path id="svg_589" fill="#a50606" stroke="#a50606" d="m283 174h5v2h1q1 1 2 2 1 2 2 2t1 0q0 1 0 2v2h1v4q1 4 1 6v3l-1 1v1l-1 1t-1 2l-1 1v1h-2t2 9 3 10q2 1 3 1t1 0v2h1l1 1 1 1h2q3 0 5-1 2 0 3-2 0-1 1-2 1 0 3-4 1-5 2-5 0 0 0-1h2v-1h1v1h1v1h1l1 1q1 0 0-1 0-2 3-4t5-4 2-7q1-5 2-5t4 1h4l1-1h1l2 1h2t1 0v1h1q2 1 3 4t2 3h1v5t0 1h1q0 1 1 1h1v1h-1v1h2l2 1q2 1 3 2 0 1 1 1t1 2q0 1 1 1h1l1 5q2 6 3 6t1-1h1v1h1v1l1 1q0 2 2 2 2 1 2 2 1 1 1 1v1h-1 3l2 1q3 0 3 1t1 1h1v3q0 2-1 2t-1-1-1-1q-2 1-2 2t4 2q5 1 6-1 0-1 2-2 2 0 2-3-1-2-4-2t-3-1 1-1l1-3q1-3 3-2 3 0 3-1 1-1 1-1v-9h-4q-1 0-4 2l-4 1h-1v-1q-1 0-1 0t0-3q-1-2-2-2-2-1-1-2 1-2-1-3l-2-2v-2q0-3 2-7 2-5 0-5l-3-1q-1 0-1-2v-4h1v-1h-2v-1h1v-1h4q2 0 4-1 3-2 3-3t1-2q2 0 2 0v-1l1-1q1 0 2 0v2h4q1-1 1-2h1v2q-1 1-1 2v1h2q1 0 1 3l1 3v-1l2-2q1-2 5-2t5 0h2v-1h1v1l-1 1v1t0 1h1l2 3q3 2 1 4-1 2-1 4 0 0 1 3 0 2-2 2-1 1-2 1h-1v2h3q2 1 4 3 0 2 0 5v2t-1 2v1h-1v4h1v1h1v1l1 1 1 1v1q2 1 2 2 0 2 2 1t2-1v-1h3v1l-1 1v2h-1v1h-1v1t-3 0l-3-1v4l2-1q1 0 1 1v1h-2q-2 1-2 1h-1t0 1h-1q0-1-1-1t-3 5q-3 4-2 5 1 2-2 2-2 0-2 1l-1 1v6h1l1 1 1 1h1v1l1-1h1q1 0 4-1h2v-2h2v2l-1 1-1 1v2h1v1h1v4q0 4-2 4t-2 2v2h-1q-1-1-1-1v1q-1 0-2-1h-1v1l-1 1v1h-3v1q1 1 1 2v1h-1q-1 0-1-1-1-1-1-1v-2q0-1-3-1-2-1-3-1l-1-2h-2v-2h-1l-1-1h-1v1l-1 1v4h1v1h1v1l1 1 1 1v1t1 0v1l3 4q3 3 4 3 2 0 3-1h1q0 1 0 1h1v1h1v2l-1 2q0 3 0 3-1 1-1 2h-2t-1 3-2 3-1 2v1l1 1-1 1q-2 0-2-1 0-2-2-2-1 0-1 1l-1 1v1h-1v1h-1v1h-1v1h-1v1l-1 1v1l3-1q4 0 4 0h3l-1 1h-1v2h-1l-1 1h-3q-2 1-2 2-1 2-2 2-2 0-2 4t-2 3-3 2-1 4 0 2v1h-1v1h-3q-4 0-4-3 0-2-8-3-7-1-8 0 0 1-3 1-2 0-4 3l-1 3-1 1v1h-2v-2q-1-2-1-4-1-2-6-2-6 0-8 0-3-2-8 0-4 0-7 3-3 2-9 3-6 2-8 2t-3 3-4 4q-2 1-5-1l-2-1v-1t-1 0h-1q-1 0-2 0t0-2q0-3-2-2h-3v-4h1q1 0 1-3-1-3-3-5-2-1-1-4 1-2 2-2 2-1 1-3 0-2-2-2-1 0 1-3 1-2 1-4 0-1-2-1-1 1-1-1v-2h1v-1l1-1 1-1v-3h-1v-1h-1v-1h-1v1h-1v1h-1v1h-1v1t1 1v1t1 1v2h-1l-1-1-1-2q-1-1-2-2-2 0-2-1l-1-1v1h-1v1h-1v1l-1-1-1-1v3q-2 4-2 6v2h-1v-1q-1 0-1 1 0 2-1 2t-1-2-1 0-6 2q-6 0-9 1t-4 3q0 1 1 1 1 1 1 4v5h-1v1h-1v1h-2v-1h-1v-1h-1v-1h-1v-1h-1v-2q0-1-1-4l-1-3v-1q0-1-1-2l-1-1v-1t1-2q1-1-3-2-3-2-4-5 0-3-1-3t-1-6q0-7-1-7-2 0-2-2-1-2-3-3l-2-2v-1t1-1v-3q-1-1-1-1 0-1-1-1v-1h2q2 0 3 0h1q-1 0-1 0t0-2 1-2 1-4q0-3 3-4 2 0 5-1 2-1 5-2 3-2 3-3 0-2 1-6 1-5 1-4 1 2 2 0l2-1h2q2-1 8-1 5 0 6 1 0 1 2 1h1v-2l1-1v-2h-1v-1h-1v-3q0-3 1-3 1-1-3-9-2-8-7-10t-8-7-3-9-2-5h-2v-1h-1v-1l1-2v-1l2 1q2 0 2-1 1-1 1-2h1l-1-1q0-2 1-2t3 0h3v-1q1-1 2-2t3-1h2v-1l1-1v-1l1-1v-1h1v1h4v-1h1v-1l3-1q4-1 4-2t2-2q3-1 5-1zm104 37q0-1 1-1 2 0 2 1-1 1-2 1t-1-1zm14 61q1 0 1 0 0 1-1 1-1 1-1 0t1-1zm-114 15l1 2q0 2 1 3h5q2 0 3 2t0 3q-1 0-1 1t-1 1q-1 1-2 1h-2q-1 0-1-1-1-1-1-1h-1q-2 0-2-1-1-1-3 0t-3-1v-3h-1v-1h4q1 0 1-2l1-2h-1t0-1h1l1-3q0-2 2-2 2 1 2 2 0 2-1 2-1 1-2 1zm101 13q1-2 3 0 2 0 3 0 2 0 4 0t-1 3-5 2-2-3q0-1-1-1t-1-1zm-107 6q1-1 1 0t-1 0q-1 0 0 0z"/>
  <path id="svg_593" fill="#982929" stroke="#982929" d="m596 213l2 1q2 0 3 1 0 1 1 1t2 2 4 4q2 2 4 3l1 1h1v1l1 1 1 1v2q0 1-1 2t-3 1q-3 0-5-1-3-1-5-7-3-5-4-5l-2-1h-1t-1-1v-3q0-2 1-2t1-1z"/>
  <path id="svg_594" fill="#886060" stroke="#886060" d="m547 656v-3h2 2v3 2h-2q-2 0-2-2z"/>
  <path id="svg_596" fill="#9f1e1c" stroke="#9f1e1c" d="m154 363h1l1 2q0 1 4 3 5 2 5 3t1 2 2 1v1h-2q-1 1-1 1-1 0-1 0t-4 1q-4 0-4-1-1-2-6 0h-5v-1h1v-2h-1v-1h-1v-5q1-1 1-1l3-1q4-1 6-2z"/>
  <path id="svg_599" fill="#812e2c" stroke="#812e2c" d="m732 90q3 0 4 0 0 1 0 5t-3 4q-4 1-5-3 0-4 0-5 1-1 4-1z"/>
  <path id="svg_606" fill="#a42220" stroke="#a42220" d="m238 380l1-2-1 2q0 2 1 2 1 1 0 2t0 1q0 1 1 1h1q1 0 1 0v2l1 2q1 2 3 4 3 0 2 2-1 0 0 1 2 1 2 3v2h-1q-1 0-2-1t-1 1q0 3-2 3l-1-1h-1l-1-1q-1-1-1-1-1 0-2-3v-2q0-1-1-1t-2-2-1-4q-1-2-2 0 0 1-1 1l-1 1h-1v-2l1-2v-2h1v-1h1v-1q0-1 2-2 2 0 4-2z"/>
  <path id="svg_612" fill="#833738" stroke="#833738" d="m480 109q1-1 2 0 2 1 2 3 0 4-2 4-3 0-5-1-1-2 0-4 1-1 3-2z"/>
  <path id="svg_613" fill="#961e1f" stroke="#961e1f" d="m574 16v-4h19q-1 1-1 5v4t-1 1v1h-1q0 1-3 1h-4t-4-2-5-6z"/>
  <path id="svg_614" fill="#af1e1d" stroke="#af1e1d" d="m515 610v4t0 1h-1v1h-1l-1 1-1 1h-9q-1 0-2-1v-2q0-1-2-5l-2-3v-1t-1 0v-1q0-1 5-2 4-1 9 1t5 2q0 1 1 4z"/>
  <path id="svg_618" fill="#d1a3a2" stroke="#d1a3a2" d="m280 628q2-2 3-1 1 0 1 1 0 2-2 2-3 0-2-2z"/>
  <path id="svg_620" fill="#a13435" stroke="#a13435" d="m495 578v1h-1-1-2l-2-1-1-3q0-3 0-4 1-1 4 0 4 1 4 4t-1 3z"/>
  <path id="svg_622" fill="#d16d72" stroke="#d16d72" d="m194 542l-1-1 2 1q1 2 3 5t2 4v1q0 2 0 2v-1q0-1-4-2-3-1-3 1-1 1-2 1h-2v-1h1v-1h1v-1h-1t0-1l-1-1h1l1-1q1-1 3-1h1v-1q-1-1-1-3z"/>
  <path id="svg_623" fill="#ed9992" stroke="#ed9992" d="m214 416v-3h4q1 0 1 2l-1 2v3h-3v-1h-1v-1t0-2z"/>
  <path id="svg_627" fill="#b03436" stroke="#b03436" d="m8 496v-3h6q5 1 6 1h2l2 1 1 1h1v2 1h-1v1h-6q-6 0-9-1l-2-1v-2z"/>
  <path id="svg_630" fill="#ab1010" stroke="#ab1010" d="m404 325l3-1 1-1h2v2q-1 1-1 1h-1t0 1h-1v1h-1l-2 1-2 1h-1v1h1v1l1 1 1 1 1 1q1 1 2 3 1 3 4 4 3 2 3 2t1 1h1v5l2 2q3 2 4 2v2q-1 3-4 3-2 0-2 2 1 2-2 4-4 2-4 3t1 1l1 1h-2v1h-1v-1q-1 0-1 0v-2q0-1-3-2-3 0-5 0 0 0-2 0h-1l-1-1-1-1h-1v-3h1q0 1 1 1 2 0 2-4l1-3h-1l-1-1h-1v-1h1v-1h1-2q-1 0-4 0l-2 1v2h-2v-2h1v-1h1v-1l1-1q1-2 0-4v-2h1v-1q0-1 0-2t1-4 3-2 2-3 1-4 1-1 4-2z"/>
  <path id="svg_632" fill="#dd6f73" stroke="#dd6f73" d="m454 382v1q-1 1-1 1t-3 2q-2 0-4 4l-1 3v-3q1-2-1-4l-1-1 2-1q3 0 3-4t1-4 1 2 2 3 2 1z"/>
  <path id="svg_633" fill="#ec696a" stroke="#ec696a" d="m235 616h4t1 3q0 2-4 2-5-1-6-1l-2-1v-1h1l1-1q1-1 5-1z"/>
  <path id="svg_634" fill="#9d3f3c" stroke="#9d3f3c" d="m381 217v-3h1t1 1h1v3q0 4 1 4 0 0 1 1h2l1 2q1 2 1 1v-2h1q1 0 1 1v2q0 2-3 2t-2 3 0 3l-1 1h-1v1h-1t-1-1q0-1-2-2-2 0-2-2l-1-1v-1h-1v-2h-1v-3l2-1q2 0 2-2v-2l1-3z"/>
  <path id="svg_635" fill="#953131" stroke="#953131" d="m245 379l3-2 2 4q1 5 1 5h1v5t-1-2l-1-2q-1-1-1-1h-1q-2 0-4 1l-1 1q-1-1-1-1v-1t-1 0q1-1 1-1 0-1 0-2 0-2 3-4z"/>
  <path id="svg_644" fill="#773c3c" stroke="#773c3c" d="m182 264h2t1 1l1 1v2q0 2-1 2v1h-1q0-1-2-1-1-2-1-3-1-2 1-3z"/>
  <path id="svg_645" fill="#df7976" stroke="#df7976" d="m254 332q0-2 2-2t2 2q0 1-2 2-2 0-2-2z"/>
  <path id="svg_647" fill="#ad4e54" stroke="#ad4e54" d="m15 286l1 2v1h1v1h1v2h-1v1h-1v1h-1q-1 0-1-1 0 0-3-1l-3-2v-4h1l3-1q3 0 3 1z"/>
  <path id="svg_649" fill="#db9291" stroke="#db9291" d="m93 282v-2h1 2v2q0 2 1 2 0 0 1 1h1v1q-1 0-1 0v1h-1q-1-1-2-1-1-1-2-4z"/>
  <path id="svg_650" fill="#9d4641" stroke="#9d4641" d="m368 197v1h-1v1h-1v1q0 2 1 2v1l-1 2q0 2-1 3v1h-2-2v-3q-1-2-1-4-1-3 1-4l2-1 2-1q2 0 2 0 1 0 1 1z"/>
  <path id="svg_651" fill="#804a4d" stroke="#804a4d" d="m360 51q2 0 3 3 0 3-2 3-2-1-3-2 0-1 0-3 0-1 2-1z"/>
  <path id="svg_652" fill="#a20a0b" stroke="#a20a0b" d="m214 224l6 1q6 0 7 1 0 1 1 0 2 0 2-1t1-1h2v1h1v1l2-1q1-1 6 0 6 1 7 3 1 3 2 4l1 2v6q-1 3-2 4 0 0-1 1 0 1 0 1h-1v2q0 1 0 2v1l-2 2q-2 2-2 5-2 3-4 6-3 2-6 3t-5 1q-3 1-3 4 0 4-1 4t-1 2 0 2 1 0h-1q-1 0-3 0h-8q-4 0-4-1-1 0-3 0t-2-1-1-1-1 1-2 1q-1 0-1-3 1-2 0-3t-3 0h-2v-1q0-2-1-2 0 0-1-1t0-2q2-1-2-3l-5-2v-2h1q1 0 1-2v-2q1 0 1-1v-3q0-1-1-2v-1q-1-1-1-1v-2t-1 0q0 0 2 0t3-3q1-4 2-4 1-1 1-3v-2l1-1q1-1 3 0 1 0 2-3 1-2 3-3 3-1 4-3t2-2 2 1q0 1 2 1t2 0z"/>
  <path id="svg_655" fill="#9b3d3e" stroke="#9b3d3e" d="m796 534v-1l1-4q1-3 3-4t4 1 1 4-3 3-3 3q0 1-1 0-2 0-2-2z"/>
  <path id="svg_656" fill="#a10405" stroke="#a10405" d="m682 105h1q0 1 0 1h1l1 1 1 1 6 2q6 3 8 5 2 3 2 3h1t1 1l1 2q1 2 1 3 2 2 2 5t0 4q1 1 2 1l3 4q3 4 3 9t0 6v1l1 1 1 1v6q0 6-1 8-1 1-6 8l-5 7q-1 1-1 1-1 0-7 3-7 3-9 9-1 6-3 8-2 1-5 2l-3 2h-2q-1 0-5 2-4 0-5-1-2-1-8-3l-6-1v-1t-2 0q-2-1-2-2 0-2-8-3t-10 1l-2 2v1h-1v1h-1v1h-1v1h-4v-2l1-1v-1h1l3-2q2-2 2-4v-2h-1v-1h-1v-1h-2v-1h-1v-1h-1l-4-1h-4v3q0 2 0 6-2 3-6 5-5 1-8 3l-2 2q0-1-1-1v-1q-1 0-1 0 0-1-4-4l-4-4v-1q0-1-1-2l-2-1v-5h1v-1l2-1q1-1 4-1h4v-4l-1-1q-1-1-1-2t-1-1-1-2q-1-1-2-1t-2-4v-4l2-5q2-4 5-7t3-4v-1t1 0v-1q0-1 2-9 3-8 3-16v-8l4-4q3-4 5-4 1-1 2-3 1-3 3-3 3-2 9-2h6q1 0 1 0v-1h14q14 1 24 2 9 1 10 2z"/>
  <path id="svg_657" fill="#b23939" stroke="#b23939" d="m74 594l5 1q0 1 1 1h1q1 1 1 3-1 3-2 3 0 0-2 1l-1 1h-3q-3 0-6 1-3 0-3-1v-1-1l1-1q0-1 1-1 1-1 2-4 1-2 5-2z"/>
  <path id="svg_658" fill="#923c3e" stroke="#923c3e" d="m363 552l-1 2q-2 2-4 2h-1v-1q-1-1-1-1v-2q0-2 3-3 3 0 3 1 0 2 1 2z"/>
  <path id="svg_660" fill="#a6544e" stroke="#a6544e" d="m123 566q3 0 3 2-1 2-4 2t-3-2q1-2 4-2z"/>
  <path id="svg_663" fill="#b12121" stroke="#b12121" d="m508 636t-1 1-5 1h-5v-1h-1v-1l-1-1-1-1v-6l2-2q2-2 6-2 3 0 4 0t2 2q2 2 1 6-1 3-1 4z"/>
  <path id="svg_664" fill="#af0607" stroke="#af0607" d="m388 345h3v1q1 2 0 4l-1 1v1l-1 1v1h-1t0 1h-5l-1 3q-2 4-1 6 1 1 3 3t3 3q1 2 2 1 1 0 1-2t1-2 1 1q1 2 2 2t2-1l6 1q6 2 6 1v-1t1 0v1h1v-1h2l3 1q3 1 3 2h1q0 1 1 1l2 2q1 3 5 3 5 0 5 2 1 1 2 2h1l1 1q2 0 2 1t1 1l-1 3q0 3-4 4t-2 3q0 1 0 5t4 2q3-3 8-2 4 0 5-1v-1h1q1 0 2 2 0 3 2 3 1 0 1 1h1v1h1l1 1 1 1h2v-1h1v-1h4v4h-4v3h1v1h1v1h-1v1h-1t0 1q-1 1-1 1v2q-1 1-4 1-3-1-7-1-5 0-9 2l-4 2h-2q-1-1-2-2-1 0-5-1-4 0-4 1t-3 0q-2-2-7-2h-6q-1 0-4-3l-3-2h-1q0-1-3-4l-3-4v-1q0-1-1-3 0-2-3-3h-4l-1-1-1-1h-2v1h-5v2h3l1 3q1 2 2 3l1 1v1l-1 2v2h-2v-1l-1-1v-1h-1v-2q-1 0-1 0 0-1-1-2-1 0-1-2v-2h-4v2q0 1-1 1-1-1-3 1-2 0-4 3-1 3-4 3-2 0-4 3t-4 1q-3-2-4 1t-2 3q-2 0-3 2l-1 2v2-1h-1v-1h-1l-1-1h-1v-1q0-2-2-2l-1 1v-1q1-1 2-2 1 0 1-2v-3h-2v2q0 2-3 0-3-1-5-1h-1q-1-1-1-2l-1-1v-1q1 0-1-1 0-1 0-3l2-1v-1h-1v-1h-1v-1h-1v-1h-1v3q-1 2-2 3l-1 1h-2v-1h-1v1h-2v-3q0-2 1-3 0-1-3-2h-2v-1t1-1q0-2-1-2t-1-2 3-4l3-2v-1h-1v-5h-1v-1h-1v1h-1l-1 2q-1 0-2 1v-1q0-1-2-1-2-1-2-2-1-1-4-1t-4-2q0-2-2-2-1-1-1 0t-1 1q-2-1-1-1t-1-2q-1-2-2-2-2 0-2-1t-3-3q-2-2-3-3v-2h-1v-2l1-1v-3l1-1 1-1v-1h5l4 1q4 0 4-1v-2h1q1 0 1 1t3 2q4 1 5-1 1-1 2-3 1-3 3-3t8-2q6-1 9-3 3-3 7-3 5-2 8 0 2 0 8 0 5 0 6 2 0 2 1 4v2h2v-1l1-1 1-3q2-3 4-3 3 0 3-1 1-1 8 0 8 1 8 3 0 3 4 3zm-18 57t1 0q0 0-1 0zm57 8q-3 0-5-4-3-4 1-2 4 0 5 0 2 0 2 2 0 3-3 4z"/>
  <path id="svg_666" fill="#9c2f2e" stroke="#9c2f2e" d="m253 230h1l1-1h1l1 4q1 4 1 7 2 3 2 3v1h1l1 1h2v1 1h1v1h1 2t0 1-2 1q-3 0-8 0-6 0-8 1h-2v-1q0-1 0-2v-2h1t0-1q1-1 1-1 1-1 2-4v-2-3q0-3 0-4v-1h1z"/>
  <path id="svg_667" fill="#9e4445" stroke="#9e4445" d="m12 310h4v1h1v1h-1v2h-1l-2 2q-2 0-3 1h-2v-5q1 0 2-1 0-1 2-1z"/>
  <path id="svg_671" fill="#993b38" stroke="#993b38" d="m434 343l1-2h1q1 0 2 2 0 2 1 3v1h-1q0-1-1 1t-4 1-2-3l1-1t2-2z"/>
  <path id="svg_672" fill="#a53030" stroke="#a53030" d="m117 340l1 1q0 1 1 1t1 1-1 1h-1q-1 0-2 1h-1q0-1-1-1-2 0-3 2-1 1-1 0v-2h-1t-2-1l-2-1q-1-1-1-1v-3t1 0v-1h3q4-1 5 0t2 3q0 1 1 1 1-1 1-1z"/>
  <path id="svg_674" fill="#843c3c" stroke="#843c3c" d="m348 122h2q3 0 4 3 1 4-4 3-4-1-3-4 1-2 1-2z"/>
  <path id="svg_677" fill="#8e4446" stroke="#8e4446" d="m210 601l2 1q2 1 1 3 0 2-1 2h-2q-1-1-2-1v-2q0-2 1-2h1t0-1z"/>
  <path id="svg_678" fill="#c58a90" stroke="#c58a90" d="m18 274h4l1 1q1 1 2 2v1h-4-4q-1-1-2-2-1 0-1-1t4-1z"/>
  <path id="svg_681" fill="#933a37" stroke="#933a37" d="m688 404h-4v-4q0-4 4-4 3 0 3 4t-3 4z"/>
  <path id="svg_682" fill="#972425" stroke="#972425" d="m176 292h2v2 1l-2 4q-2 3-3 4l-1 1h-1-1q-2 0-4-2l-2-2t-1-2v-2-1q1-1 1-3 1-1 2-1h1 4q4 1 5 1z"/>
  <path id="svg_684" fill="#a5403e" stroke="#a5403e" d="m312 550h1t1 1v1h3q3 1 3 2v2t-1 0v1h-1q0-1-6-1t-8-2l-1-2 1-1q2-1 4-1 3 0 4 0z"/>
  <path id="svg_686" fill="#a54c4d" stroke="#a54c4d" d="m312 542h1l2 1q2 1 2 1h1v1h1v1h1l-1 1-1 1h-6t-1-3q-1-2 1-3z"/>
  <path id="svg_690" fill="#972827" stroke="#972827" d="m568 240h8q6 0 7 0h1v1q1 1 0 1-2-1-2 0 0 2 1 3v1q-1 1-2 2-1 0-3 1-3 1-6-2-2-3-4-3h-2q0-1-1-1l-1-1q0-2 2-2 1 0 2 0z"/>
  <path id="svg_693" fill="#9a383d" stroke="#9a383d" d="m465 534v1h-1q-1 1-1 1h-1-1v-1q-1 0-1-1-2-2-1-4v-1l3-1q2 0 3 2 1 3 0 4z"/>
  <path id="svg_695" fill="#a43f3c" stroke="#a43f3c" d="m421 346h2v-1h1v1q0 2 1 4v3h-1q-2 1-2 1-1 0-4-2l-2-2 2-2q1-2 3-2z"/>
  <path id="svg_697" fill="#9a4545" stroke="#9a4545" d="m150 711q2 0 2 3t-3 3q-3-1-3-3 0-3 4-3z"/>
  <path id="svg_698" fill="#a41b1b" stroke="#a41b1b" d="m425 322l2 1q2 1 5 1h4q2 0 2 1v1q-1 2-2 2t-1 4q-1 4-1 4 0-1-1-1l-1-1q0-1-2-1t-2 4 1 5 0 1h-1q-1-1-4 0t-5-2q-1-2-3-3-1-1 0 3v4h-1q-1-1-1-1t-3-2q-3-1-4-4-1-2-2-3l-1-1-1-1-1-1v-1h-1v-1h1l2-1 2-1h1v-1h1v-2h1v-1h2v1l-1 1v1t-1 1h-1t0 1v3h4v-1l1-3q1-2 3-2h1t1 1h1q1 0 1-1t-2-1q-1 0-1-1v-1h1q1 1 2 1h4v-1t1-1z"/>
  <path id="svg_700" fill="#952728" stroke="#952728" d="m466 278h8q8 1 8 6 0 4-1 4 0 0 0 1h-1q-2 0-3 3-1 2-2 4t1 2q2-1 2 0 0 2-2 3t-2 1q-1 0-6-1l-6-1q0-1-1-1v-4q1 0 2-3l1-2v1q1 1 3 1t2-2l1-2v-1h1v-1h1l1-1h1v-2h-1l-1-1h-10v1h-1v-1h-1v-2t1 0v-1h1q2-1 4-1z"/>
  <path id="svg_705" fill="#a12c2c" stroke="#a12c2c" d="m68 518h4v1h1v1h1v10h-1l-1 1q-1 1-4-1l-3-1v-1q-1 0-1-2l-1-3v-3h1q1 0 4-2z"/>
  <path id="svg_706" fill="#ba5356" stroke="#ba5356" d="m96 282v-2h2 1l2 2q1 2 1 2t-2 1h-1-1q-1-1-1-1-1 0-1-2z"/>
  <path id="svg_709" fill="#930b0d" stroke="#930b0d" d="m447 15v1h1v2h3q2 0 4 0 2-2 7 0 4 0 5-1t3-1h2v1q0 1 4 3 4 3 6 6 2 2 2 3 0 0 0 3v6q0 2-1 2l-1 1q-1 1-1 12 1 11-3 17t-6 8q-3 2-9 2t-9-1l-4-1-1-1h-1q0-1-4-5-5-6-6-9-2-3-5-6l-3-3h-1v-1h-1v-6h1v-1h2l1-1h2l3 1q3 0 3-2 1-2 2-2h3v-1h1v-5h-5v-1h-1v-3h3q2 0 5 0h2v-3l-1-2q-1-2-2-7l-2-4 1-1q0-1 0 0 0 0 1 0z"/>
  <path id="svg_711" fill="#9d524f" stroke="#9d524f" d="m96 473v-3h1q1 0 1 2 0 1 3 2 3 0 3 2t0 2l-1 1h-1-1l-1-1h-1q-1 0-2-1t-1-4z"/>
  <path id="svg_713" fill="#b63f41" stroke="#b63f41" d="m357 620v-5 2h1l2 1h1l1 1q0 1 0 1h1l-3 2q-2 2-2 3v1t-1-6z"/>
  <path id="svg_719" fill="#b41d1e" stroke="#b41d1e" d="m252 558l2-3q1 1 2 1h2q3 1 4 2 0 2 1 4v3q1 2 1 1t2 0q2 0 2 2t1 2v2q0 3-5 3-4 1-6 6t-3 4-1 1v1l-1 1-1 2v-1h-1v-1h-3v-2h-1q-1-1-1-2l-2-2v-1t-1-1l-1-2q1 0 2-2 0-1 1-1 1-1 3-7 1-7 2-7 1-1 2-3z"/>
  <path id="svg_720" fill="#921e20" stroke="#921e20" d="m172 220h1l5-1q5 0 6 3 2 2 2 5 0 2 0 3v1t-1 1v1h-5l-4-1t-2-1-2-6l-1-5h1z"/>
  <path id="svg_721" fill="#bd0f0e" stroke="#bd0f0e" d="m172 472l-1-4h2q1 0 2 0 0 0 1 1v1l1 1 1 1v1h1v1h1v1l1 1 1 1v1l1-1q1-1 3-2l3-1 2 4q1 5 2 8 1 2 1 4 2 1 4-4t3-5h1q0 1 0 1h1l4-1q4-1 7 1 4 1 5 4 1 2 3 2h3v1h1v1l-2 3q-1 3-3 5-2 0-3 0h-1v1h-1v1h-1v1h-1v3l1 1 1 1 1 1 1 1 5 2q5 2 5 4 0 1 1 2v4l-3 2q-3 2-2 5 0 3 0 4h1l1 1q2 0 3 4 1 3 1 3v3q0 2 2 4 3 2 4 2 0 0 0 1h1q0 1 1 1v2h1l-1 4q0 4 1 6t1 6q0 5 1 5t1 1-1 1-1 1q1 2 2 2l1 2q1 1 1 1v1l2 2q0 1 1 2h-1q-1 0 0 1 0 1 0 2h-1l-2 1q-3 0-3 2 0 1 0 2 0 0 1 2v3q0 1 1 1v1q0 1 1 3v1l-1 3q-1 2-2 3-1 0-1 1v4h-4q-4 0-5 1l-1 1h-1v1h-6l-1-1-1-1v-2l1-1q1-1 1-2t1-6q1-6 0-12l-1-5v-1t-1 0q-1-1-1-1v-1t-1 0q-1-1-1-2l-1-1v-3q-1-2-1-6l-1-3-4 1q-4 0-5 2-2 3-2 4h-2v1h-2v1h-2v-4h1v-1q1 0 1-1t-2-3-4-7l-2-4v-1q0-1 1-2t4-2l3-1t0-2v-1q0-1-2-4l-3-4v-1q-1 0-1 0 0-1-1-1v-1q-1 0-3-2-2-3-6-4l-4-2h-1v-1h-1v-2l1-1h1v-2q0-1 1-2l1-1h1q1-1 3-1h1v-2l-1-1v-3l-1-1-1-1t-1 0-5-2l-5-1h-2v-2h1q1-1 2-3l2-3v-5h-1v1h-1l-2 1q-3 2-4 2h-1v-4l1-2v-1h-1v-1h-1v-3h3l3 1q3 2 4 2h1v-1q-1-1-1-1 0-1 0-3l1-1v-1h1v-1h2v-2q0-1-1-2-1 0-2-4-2-3-3-3t-2-3zm58 100q0-3 2-2t2 6q2 4 0 4t-2-2q-2-3-2-6z"/>
  <path id="svg_722" fill="#86474a" stroke="#86474a" d="m356 64q2-2 5 0t3 3q0 2-2 3-3 0-4-2t-2-2q-2 0 0-2z"/>
  <path id="svg_725" fill="#893133" stroke="#893133" d="m505 217l2-1 2 2q3 2 3 6 1 3 0 3l-2 1h-2-1t-1-1h-1v-1q-1-1-1-4 0-4 1-5z"/>
  <path id="svg_726" fill="#a84140" stroke="#a84140" d="m487 535v1 1l2 1q1 1 2 2v2q-1 1-1 2v2h-1q-1 0-3 1h-3v-1q1 0 0-2-1-1 0-4l1-3 1-1q1-1 2-1z"/>
  <path id="svg_732" fill="#b92322" stroke="#b92322" d="m178 432h1t1 1v2q0 2-1 3-1 0 0 0v1l-3 3q-2 4-3 4v1h-1l-4 1q-3 0-3 1-1 1-1 1v-5t0-1q0-2-1-3t-1-2v-2h1q1-1 1-2v-4h7q7 1 7 1z"/>
  <path id="svg_734" fill="#83383a" stroke="#83383a" d="m504 209v2q-1 1-2 1-2 1-2 2t-2 2l-2 1v-3l1-3q1-3 4-4 3 0 3 2z"/>
  <path id="svg_735" fill="#8b3330" stroke="#8b3330" d="m476 308h4q4 0 7 0 4 0 4 1 1 1 1 1v2t-1 0v1h-1q0 1-6 1h-8t0-1q0 0-1-2v-3h1z"/>
  <path id="svg_737" fill="#a72424" stroke="#a72424" d="m198 402l2-1v1q0 2 2 2 1 0 2 1h1v4l-1 2q-2 3-4 3h-2t-2-1l-3-1h-1v-1l-1-1-1-2v-1h1l1-1h1v-1h1v-1h1t3-2z"/>
  <path id="svg_738" fill="#b01b19" stroke="#b01b19" d="m406 526v2q-1 2-2 2-2 0-2 3v3h1v1h1v1h-1q-1 0-3 0h-3l-1 1q-1 1-2 2v-1t-1 0l-1-1v-1q0-1 0-4 0-2-3-3-2-1-3-1h-2t0-1v-1t2-4v-4h2l1-1q1 0 1-2 1-1 8-1 6 0 7 2t1 4q0 3 0 4z"/>
  <path id="svg_739" fill="#a12b27" stroke="#a12b27" d="m477 578h-8v-1h-1q0-1-4-2t-6-4q-2-2-4-4l-3-1-1-1-2-1v-2q0-2 4-4 3-2 10 5 6 6 7 8 1 1 4 3 3 1 4 2 1 2 0 2z"/>
  <path id="svg_745" fill="#9d393f" stroke="#9d393f" d="m578 427h1q0 1 1 1v2 2h-2q-3 0-4-2l-1-2 1-1q0-1 2-1 1 0 2 1z"/>
  <path id="svg_749" fill="#a55056" stroke="#a55056" d="m50 550l3-1h1q1 1 2 1h1v2l-1 1v1q-1 0-4 1h-4v-3q0-2 2-2z"/>
  <path id="svg_750" fill="#923d3d" stroke="#923d3d" d="m284 518v1t-1 1q-1 2-2 3t-3 0l-3-1t-1-1l-2-1t1 0v-1l2-1q2-2 5-1 4 1 4 1z"/>
  <path id="svg_752" fill="#9c2122" stroke="#9c2122" d="m449 275v1q0 2 4 2 3 0 4 0v1q0 1 1 1v2q0 1-2 2l-2 1h-2q-3 1-4 1 0 0-1-1-1 0-1 2t-3 3l-2 2q-1-1-1-1v-1q0-1-1-2h-1v-1q0-1-2-1h-3v-1h-1v-1l-1-1v-3l1-2v-1h1v-1h5l2 1q2 1 2 0l2-2q2-1 4-1 1 0 1 1z"/>
  <path id="svg_753" fill="#904f4b" stroke="#904f4b" d="m212 716v-6h2q1 0 2 3 0 3 0 5 0 3-1 5 0 2-1 2h-2v-1-2q0-1 0-6z"/>
  <path id="svg_755" fill="#d26b6a" stroke="#d26b6a" d="m525 488h-4v1h-1v1l1 2q1 3 1 3v1h-1v1h-1v1h-2q-1 0-2-1v-1q0-1-1-1v-1q-1 0-3-1l-2-1 1-1q1-1 7-3 7 0 7 0z"/>
  <path id="svg_756" fill="#8d2022" stroke="#8d2022" d="m327 156l2-3 4 1q4 0 5 1 0 1 0 5v4h-1v1h-1q0 1-3 1t-4 0q-1-1-1 1l-1 2h-2v-2l1-2v-3q0-2 1-6z"/>
  <path id="svg_758" fill="#814549" stroke="#814549" d="m1010 298q3 0 3 3t-3 3q-2 0-2-2 0-3 2-4z"/>
  <path id="svg_763" fill="#8d484e" stroke="#8d484e" d="m162 395l2-1q1 0 2 1 0 1 0 2 0 2-2 3-2 0-3-2t1-3z"/>
  <path id="svg_764" fill="#aa4f4e" stroke="#aa4f4e" d="m112 588t0 1h1v1h1v1l-1 1-1 1v1h1v2q-1 1-2 1-1 1-1-3-1-2-5-3l-4-1h-1v-1h-1v-2q0-1 6-2 5 0 6 1 1 2 1 2z"/>
  <path id="svg_765" fill="#8b3f40" stroke="#8b3f40" d="m48 261l3-1h1l1 1 1 1h2q1 0 1 1 1 1 1 1v1q0 1 0 1-1 0-5 0l-4-1v-1q-1 0-2-1t1-2z"/>
  <path id="svg_766" fill="#7b4852" stroke="#7b4852" d="m1013 274q1-2 3-2 3 0 2 2 0 2-3 2t-2-2z"/>
  <path id="svg_767" fill="#9f4043" stroke="#9f4043" d="m170 702q1-2 4-2 2 0 2 2 0 3-2 4-2 0-3-1t-1-3z"/>
  <path id="svg_768" fill="#a03d3c" stroke="#a03d3c" d="m545 282q-1-6 1-6 3 0 4 2 0 1 0 5 0 5-2 4-2 0-3-5z"/>
  <path id="svg_769" fill="#bd0c0d" stroke="#bd0c0d" d="m500 438v-1l4 2q4 1 6 1 3-2 4-1l-2 3q-1 2 0 3 2 0 4 8t2 9v1h1l1 1h4l2-1h1l1 1q1 0 2 1v1q1 0 2 1l2 1h8q6 0 9-3 3-2 3-3v-1l2-3q1-4 8-5 6-2 7-5v-3h1q1 1 6 1h4l1 2q1 1 1 2l-2 1q-2 1-3 0-1 0-1 3 0 2 1 5v3l1 6q0 6 1 7l1 1t0 1h1q0 1 1 1v1q0 1 1 4v7q-1 0-1 2v1l-2 3q-2 2-3 3l-1 1v1h-1v1h-3v1h-1v-1h-3v-1q0-1-3-5-2-3-7-1l-4 2h-2v1h-4v-1h-1v-3q1-4 3-4t3-1l1-1v-6h-2l-2-1h-2l-1 1h-1q-1 0-3 0t-3 3v3l-1 1-1 1h-6v1h-2q-1 1-1 1-1 0-3-2l-3-2t-7 0q-6 2-7 3l-1 1h-2q-2 0-4 1l-2 1h-1v1h-1v1l-1 1q0 1 2 1 1-1 2 2v2h-2q-1 1-2 4-1 4-6 9t-6 6v1h-1q-1 0-6-1-6-1-7 1l-1 1v-1q0-1-2-1-1 0-1-1t-1-1h-1v-1q-1 0-1-2-2-1 0-4 1-3-1-2h-2v-1q1-1 2-3l1-1v-1t-1 0q1-1 1-2 0 0 0-1 1-1 0-1l-1-1 4-3q4-4 4-4v-1q1-1 2-5 1-3 0-3t-1-1v-3q0-2 1-3l1-2t1 0v-1l3 1q4 0 5 0 1-1 1-4 0-4 1-4h4v-7h-15v-1h-1v-2l-1-1v-1h1l1-1 1-1h1v-1h-1v-1h-3v-1h2q3 0 3 1l1 2 2-1 1-1h1l2 1 3 1 4-1q5 0 5-1v-1t1-1q1 0 1 0v-1t1-1v-1q1-1 1-2t-1-3q-2-1-1-2z"/>
  <path id="svg_771" fill="#a22e2f" stroke="#a22e2f" d="m275 617l2-3h3q1 0 0 5t-2 5q-2 0-2 1-1 1-2 2h-1v-2q-1-1-1-1v-2q0-3 3-5z"/>
  <path id="svg_772" fill="#9d1717" stroke="#9d1717" d="m487 237h3q1-1 4-1h2t0 1h1q0 1 1 1 0 0 0 1 0 0 0 3-1 3-5 4-4 0-3 4v3q0 1 0 1h1l3 2q2 1 1 3-1 3-1 3h-1q-1 0-8 1-7 0-7-1 0-2-3-2-4 0-5-5-2-4-4-5h-2l-2-1h-2v-1h2v-1h2l2-1h1v1h1v1h1l3 1q3 1 4 1h4l2 1h1v-1l-1-2t0-1v-2q0-2-1-4l-1-2v-1q1-2 4-2 2 0 3 1z"/>
  <path id="svg_773" fill="#9f2122" stroke="#9f2122" d="m121 389l4-1 1 1 1 1h1v1h1v1h1v6q0 5-1 6h-2q-2 0-5 0h-2l-1-1q-1 0-2-3l-1-4h-1v-1q1-1 1-3 2-2 5-3z"/>
  <path id="svg_776" fill="#b51919" stroke="#b51919" d="m325 411l1 1q0 1 1 2v2q-1 1-1 3v2h3v3l3-1q2-1 3-1 0 0 0-1h1q0-1 0-1 1 0 1-1 1 0 1 2v2h1l1 1h1v1h1v2h-3q-3 0-2 2 0 2-2 3-3 2-3 2v1l-1 1q-1 2-5 2-4-1-5 1t-2 2-1 1 1 2v3h-1v-1h-2v-3l-1 1-1 1v-1h-1v-1h-1v2h-2v-1h-1q1-1 1-1v-3q0-3-3-10l-2-6h1q1 0 1-1h1q2-1 3-1t2-1h3q1-1 1-1h1v-3h1q0-1 1-2v-1q1 0 1-1v-1h1q1 0 1 2 1 1 1-1 1-1 1-2z"/>
  <path id="svg_777" fill="#8a2224" stroke="#8a2224" d="m445 86v-1l5 1q4 1 6 3 0 2 0 5v6h-1v1h-1v1h-1v1h-1v-1h-5l-1-1q-1-1-2-1t-3-4l-2-4q1 0 1 0v-1t1-1l2-2q1-2 2-2z"/>
  <path id="svg_778" fill="#af3033" stroke="#af3033" d="m229 664h3l2 1q2 2 2 4v2t-1 1l-1 1q-2 1-4 1h-2-1-1v-1l-1-1q-1-1-1-2v-2-1q0-1 1-1 1-1 4-2z"/>
  <path id="svg_782" fill="#a72b2b" stroke="#a72b2b" d="m488 529v3 2h-1v1q-1 0-2 1l-1 1v-1t-1 0q0 0-5-2l-5-1q0-1-1 0h-1-1q0-1 0-1t1-4l2-3h4q4 1 7 2 2 1 3 1 0 0 1 1z"/>
  <path id="svg_785" fill="#874649" stroke="#874649" d="m1010 282q1 0 3 2 1 2 1 4t-2 2q-2 1-2 0t-2-2-1-4q1-2 3-2z"/>
  <path id="svg_787" fill="#a61413" stroke="#a61413" d="m522 309h1v1q0 1 2 2 1 0 0 3t-3 4q-2 2-3 2v1h1l1 6q1 6 1 7 2 1 2 3v2q-1 0-1 1h-1q0 1 0 1h-1q-1-1-1 0h-1q-1 0-1 2-1 1-4 1-2 1-4 2-3 1-6 0l-4-1q0-1-4-3-3-2-3-1-1 2-3 4l-2 2v2q0 1 0 2v1h-2v-2h-1v-1h-1v-2h-3v1h-1v-1h-2l-1-1-1-1v-7h1v-1h4q2 0 2 0h1t2-1h1v-1l1-1v-3l-1 1-1 1v1h-1v1h-3v-1h-1v-1h-1v-3l1-1v-1h-1l-1 1h-1v1l-1 1-1 1-2 3q-2 4-3 7v3h-4v-2l-1-2v-1q0-1 1-3 0-3-3-3-4 0-4-1v-1l-1-1-1-1v-3h1t1 1q0 1 2 1t2-5l-1-5h2v-1h1v-1h4q2 0 2 2 1 1 4 0 3 0 4-1l4 1q4 0 8-3 2-3 2-4-1-1-1-2 1 0 1-1h1v-1h1l1 1 5 2q5 2 7 3 3 1 3-1t2-4q3-2 6-2 2 0 2 1z"/>
  <path id="svg_789" fill="#b01919" stroke="#b01919" d="m234 401l1 3q1 2 2 2l1 3q0 3 0 5v3h-2v2h1l1-1 1 2q1 2 2 1 1 0 3-1 1 0 2 0l-1 2q-1 1 0 2 1 0 1 1v1h-4q-4-1-4 0t2 3q2 1 3 2h1l-1 3q-1 2-4 3h-3v-1t-1 0q-1-1-1 0-1 0-4 1h-6q-2-1-3-1t-1-3q0-2-4-3-3 0-5 0t-5-1l-4-1h-1v-1h-1v-1l-1-4v-3h1v-2h2l1-1h1v-1l1-1 1-1v-1h2q1 0 3 1h3v3q0 2 0 2v1h1v1h3v-3l1-2q0-2-1-2h-2v-1t0-1 2-1q3-1 3-3t1-2h1v1l1 1q0 1 1-1t3-2q2-1 2-2 1-2 2-2t2 1z"/>
  <path id="svg_790" fill="#954344" stroke="#954344" d="m412 137h1v1h1v2q0 1-2 2t-2 2v2q-1 0-1-1-1 0-2-5l-2-4h3q4 0 4 1z"/>
  <path id="svg_793" style="vector-effect:non-scaling-stroke" fill="#af1616" stroke="#af1616" d="m276 309v-1h2q1 0 2 2 0 1 1 2l1 2h1q1 0 1-1l-1-1h1q1 0 1 1v3q0 2 1 1 2 0 2 1 0 2 0 4-2 1 0 4 1 3-1 4-1 0-2 2-1 3 1 4 2 2 3 5 0 3-1 3h-1v4h-1v-1q0-1-1-2 0-1-2-1h-3v2h2l-2 2q-2 1-2 2v2h2q1-1 1 0 1 2 1 2v1l-1 1-1 1v3l-1 1v1h-2v1h-1v1h-1v-1h-1v-2h-1q0-1-1-1l-1-1v-1q1 0-3 0l-3-1h-2v-1q1 0 0-1 0-1-3-3l-3-2h-1l-2 2q-2 1-2 2v6l-1-1v-1h-3v-1h-1v-1h-1v-3h-1v-1q-1 0-2-4l-1-3q1-1 1-1 1-1 3-4 2-2 1-2h-1v-1h1v-1h1v-5q0-3-1-4-1 0-1-1 1-2 4-3t9-1q5 0 6-2t1 0 1 2 1-2q0-1 1-1v1h1v-2q0-2 2-6v-3l1 1 1 1v-1h1v-1h1zm-22 23q0-2 2-2t2 2q0 1-2 2-2 0-2-2z"/>
  <path id="svg_795" fill="#a73835" stroke="#a73835" d="m320 596l4-1q0 1 0 1h1 1t0 1h1v2q0 2-5 2l-4-1-1 1h-1v-1q0-1-1-2 0-2 5-2z"/>
  <path id="svg_797" fill="#a22626" stroke="#a22626" d="m567 182h2t1 1h1v1q1 0 1 0v1l-1 3q-1 4-1 5v1 2q0 1 0 2v1h1v1q1 0 1 0v1h-2-2v1 1h-1-1q0-1-1-2t-4-2-4-2q-1-2-1-5l1-3h2q2 0 3-3 1-2 2-3t3-1z"/>
  <path id="svg_799" fill="#965253" stroke="#965253" d="m97 456h3q2 1 2 2v2h-2q-2 0-3 0l-1-1v-1q0-1 1-2z"/>
  <path id="svg_800" fill="#a14c51" stroke="#a14c51" d="m576 323l-3 3h-1q-2-1 0-3 1-3 4-3 2 0 0 3z"/>
  <path id="svg_801" fill="#bc7674" stroke="#bc7674" d="m576 396v3q0 3-2 3h-3v-2q-1-1-4-4l-4-3-1-1t4 0q3 0 6 2 2 0 3 1 1 0 1 1z"/>
  <path id="svg_802" fill="#7b5353" stroke="#7b5353" d="m587 56q2 0 2 2-1 2-3 2-2 1-2-1t3-3z"/>
  <path id="svg_804" fill="#a4221f" stroke="#a4221f" d="m130 439l2-1h2q3 1 3 2t1 1 1 1q1 1 1 1 0 1 1 1h1v3q0 2-1 2h-4q-3 1-5 1h-2v-1h-1v-1h-1v-7q1-1 2-2z"/>
  <path id="svg_807" fill="#ce5f60" stroke="#ce5f60" d="m75 136l-2-1h8l1 1q2 2 2 2t0 1h1q0 1 1 1v2q0 1 2 1 3 0 3 2-1 2-1 3 0 0-1 0v1h-3q-2 0-2 1 0 2-1 2h-1v-1q0-1-2-2-1-1-5-1h-4l1-1 1-1h1t2-1q1 0 1-3 0-4-2-6z"/>
  <path id="svg_808" fill="#911615" stroke="#911615" d="m108 97h1q0 1 1 1h1t1 1l1 5q1 5 0 6-1 2-1 2h-1v1h-1v1h-1v1h-1v1t-1 0q0 0-5 1l-4 1-1-1-1-1h-1v-1h-1v-1h-1v-1h-1v-8l1-1 1-1v-1l1-1 1-1v-1h1v-1h2q2-2 5-2t4 1z"/>
  <path id="svg_809" fill="#8f5252" stroke="#8f5252" d="m117 542l2-2v2q1 1 1 1v2q-1 1-2 1h-1q-1 0-1-2 0-1 1-2z"/>
  <path id="svg_810" fill="#c27977" stroke="#c27977" d="m637 266l-3-1-2-3q-4-3-4-5t4-1q3 2 5 4 1 2 2 4 0 2-2 2z"/>
  <path id="svg_811" fill="#ac1a1a" stroke="#ac1a1a" d="m454 372v1l1 5q0 6-1 6h-1v-2q-1-1-2-2-1 0-1-2t-1-2-1 4-3 4l-2 1h-1v-1h-2q-1 0-1 1v1q-1 0-1-1t-2-1l-1-1h2q2-1 3-1 0-1 0-6t2-7l1-2h2q1 0 5 0 2 0 4 1 0 2 0 4z"/>
  <path id="svg_812" fill="#cd0e0f" stroke="#cd0e0f" d="m320 613l3-2q0 1 1 1l2 1q1 1 2 2h1l1 1q0 2-1 2t-1 1v1l-1 2v1h4l-1 1q-2 1-2 2v2h1q1 0 1 1v1l-2 2q-2 1-2 4 0 2 1 3l1 1v2q1 2 2 3l1 2q1 2 1 4v2l-2 5q-1 6-2 8-2 2-1 7t-1 6q-1 1-2 1h-4q-2 0-2-1h-1v-1h-1t0-5-3-7-7-1q-3 1-4 1v1h-5v-1h-1v-4q0-3 3-3t3-1v-2h1v-1h1v-3h-1l-1-1-1-1h-5v1l-1 1h-3q-3 0-3 2-1 3-1 4v1h-1v1h-10q-3 0-4-2t-3-2l-1 1h-1q-1 1-6 1-4 2-9 2l-5 1h-1q-1-1-1-1h-1q1-1 1-2t-1-1q-1-1-2-3-1-3-6-4l-4-2q-1-1-1-1 0-1 0-3l1-3q1 0 0-2 0-2 1-2 1-1 2-2 0-1 1-1l1-1 1-1v-1h-2v-1l-1-2h-8q-5 0-6-2h-2l-2-1h-1v-1h2v-2h-2v-1h5v-2h6l2 1q1 0 6 1 4 0 4-2-1-3-1-3v-2h2v1h1v1l2 3q2 3 8 4 6 0 6 0l2 2q2 1 2 1t1 2l1 2v1h1v1h1l2 1q1 0 2-2l2-2h2l1 1h1v1l1 2 1 2v1h2q1 0 6 1t10-2q4-2 5-6t5-6q3-1 4-3l1-2h1q1 0 1-1h1q0-1 0-1h2q2 0 4-3z"/>
  <path id="svg_815" fill="#a83433" stroke="#a83433" d="m403 538h3v1l1 1 1 2v1l1 1 1 2v2t-1 0l-1 1v-1q0-1-3 0l-3 2q0-1 0-4t-3-6l-2-2h3q2 0 3 0z"/>
  <path id="svg_817" fill="#daa4a2" stroke="#daa4a2" d="m275 614l2-2h1q0 1 1 2h-2l-2 3q-3 2-3 4t1 3v2h-1v-1l-1-4q-1-4-1-7t2-1 3 1z"/>
  <path id="svg_820" fill="#b14140" stroke="#b14140" d="m304 536h1v2q0 3-3 3-2 0-2 1-1 2-4 2h-2-2q-1 0-2-1-1 0-1-3v-4l-1-1q-1-1 2-1 4 0 5 2t5 1q3-1 4-1z"/>
  <path id="svg_822" fill="#c89898" stroke="#c89898" d="m475 224v-1h2q0 1 1 1t1 1q-1 1-2 2-2 1-3-1v-2t1 0z"/>
  <path id="svg_824" fill="#824543" stroke="#824543" d="m281 152h3v5h-1v1h-3q0-1-1-1v-2l1-2v-1h1z"/>
  <path id="svg_827" fill="#a02a29" stroke="#a02a29" d="m447 227q-1 0-1 1t-5 2l-4 1h-1v1t-2 1-2-1q0-1-2-2v-1l-1-1-1-1v-1h-1v-1h-1v-4h2v-3l2-2q3-2 7-1t6 2q1 2 2 5 0 2 2 2 1 1 1 2-1 0-1 1z"/>
  <path id="svg_828" fill="#942c2d" stroke="#942c2d" d="m283 466v1h-2q-2-1-3-1 0-1-1-1l1-3q1-2 4-2 2 0 2 3t-1 3z"/>
  <path id="svg_832" fill="#cb2f30" stroke="#cb2f30" d="m396 367v-2h1q1 0 1 1 1 0 2 0t4 0q4 1 4 2v2 1q0 1-6-1l-6-1t0-2z"/>
  <path id="svg_833" fill="#af1f1f" stroke="#af1f1f" d="m406 563l2 1h1 1v-1h1l3 1q2 2 2 5t-2 3q-1 1-1 2t1 1 1 1q1 2 0 4-1 1-1 2 0 0-1 0v1h-1q-1-1-2-1-2-1-2-4 0-2-3-4t-4-6l-1-3 2-1q2-2 4-1z"/>
  <path id="svg_834" fill="#c19291" stroke="#c19291" d="m647 270v-3h2q2 1 3 1 0 0 0 1h1v1 2q0 1-3 0-3 0-3-2z"/>
  <path id="svg_836" fill="#7d4541" stroke="#7d4541" d="m556 204q2-1 2 2-1 2-4 4-4 2-4 1t2-4 4-3z"/>
  <path id="svg_837" fill="#afa1a6" stroke="#afa1a6" d="m445 177q0-1 1-1 2 0 2 3t-3 5-1-2 1-5z"/>
  <path id="svg_838" fill="#922d29" stroke="#922d29" d="m59 397q1-1 4 1 3 0 3 4 0 3-4 3t-4-4q0-3 1-4z"/>
  <path id="svg_839" fill="#cc958f" stroke="#cc958f" d="m552 246h5v2l-1 1v1h-1l1 1 1 1q1 0-2 2l-2 1v-1q1-1 1-2 0 0-3 0l-2-1 1-1q2-2 2-3t0-1z"/>
  <path id="svg_841" fill="#993132" stroke="#993132" d="m996 420q4 0 4 7 0 6-3 7-2 2-3 3-2 2-3 3-2 0-2-1-1-1 1-5t2-8q-1-5 0-5 1-1 4-1z"/>
  <path id="svg_846" fill="#8b3336" stroke="#8b3336" d="m217 205q2-1 3-1 0 1 1 2 1 0 2 4 0 4-3 3t-4-4q0-2 1-4z"/>
  <path id="svg_847" fill="#964243" stroke="#964243" d="m319 511l1-2 1 1q1 1 1 2v1l-1 1q-1 2-1 4 1 2 1 4t-1 2h-2t-1-1v-1q1 0 0-1v-1t-1-1q-2 0-2-1t2-3q2-1 3-4z"/>
  <path id="svg_848" fill="#8d3431" stroke="#8d3431" d="m156 269l1-1h3q3 0 4 1v1 1h3l3 1h1 1l-3 1q-3 1-4 1t-1 1v1h-1q-1 0-5 1-3 0-3-3v-3-1q0-1 1-1z"/>
  <path id="svg_849" fill="#e15353" stroke="#e15353" d="m218 638v-1l4 1q3 0 4 1 0 1 0 1h1l-1 2q0 1-1 2v1h-1q-2-1-4 0l-1 1h-1q-1 0-1-1t1-1 0-2q0-2 0-4z"/>
  <path id="svg_850" fill="#894f56" stroke="#894f56" d="m457 655q0-3 1-2 2 0 2 1 0 2-1 3t-2 1q-1-1 0-3z"/>
  <path id="svg_853" fill="#ab5050" stroke="#ab5050" d="m112 613v1l-2 1q-2 1-4 1-3 0-3-2 1-2 3-4 3-2 6 0 3 0 2 1-2 1-2 2z"/>
  <path id="svg_854" fill="#a33031" stroke="#a33031" d="m254 603l3-1h1 1l1 1h1v3q-1 3-1 4-2 1 0 8t2 8q0 0-2-1l-2-2v-1q0-1-3-6l-2-5v-1l-1-1v-2-2q0-1 2-2z"/>
  <path id="svg_858" fill="#ac0f10" stroke="#ac0f10" d="m67 354l1-1v1q0 1 1 2 0 0-1 1v2q0 2 0 5t-2 6q-2 4-5 6t-6 2-7 0q-5-2-8-4-4-2-5-9-1-6 2-12t5-7q2 0 8-1 5-1 10 1t6 5q0 3 1 3z"/>
  <path id="svg_861" fill="#b52323" stroke="#b52323" d="m240 528h1v2q0 3 2 4 1 2 1 4 0 3-4 6t-3 4v1h-1q-1 0-1-1-1-1-3-2-2-2-2-4v-3t1-3q1-2 4-3t3-3q1-2 2-2z"/>
  <path id="svg_864" fill="#8c3330" stroke="#8c3330" d="m133 219h2l1 1h1t1 1q0 1 0 1h1l-1 2q0 1-1 2h-1l-1 1h-6v-1h-1v-4t1-1l1-1h1q1 0 2-1z"/>
  <path id="svg_866" fill="#af1313" stroke="#af1313" d="m114 314h1t1 1h2q0 1 0 1h4q2 0 2 0l1 1 1 1v2h4t2 1h2v2h-1v1h-1v1h1v1h1v1h1v1h-1v1l-3 1q-3 0-4 2v1h-1v1l-1 1-1 1v1h-1l-1-1h-6t0-4q0-3-3-4h-2q-1-1-1-1v-1t-1 0q-1-1-1-2l-2-2v-2h1v-1h1v-2h1q1 0 1-1v-1l2 1q1 0 1-1t1-1z"/>
  <path id="svg_869" fill="#c95a58" stroke="#c95a58" d="m562 264v-1l5 1q5 2 5 3v1 2 3l-1 1v1h-1l-2-1t-4-2l-3-3v-1q-1 0 0-2v-2q1 0 1 0z"/>
  <path id="svg_870" fill="#992b2c" stroke="#992b2c" d="m501 282h1q2 0 1 2-1 3 1 5 2 3 4 3 3 0 3 2v1l1 1q2 0 2 1v1h1t1 1v1q0 2-10-1-9-3-13-3l-4-1v-2h-2l-2-1-1-1v-1h1l3-1q2 0 2-1v-1l2 1q2 0 3 0 1 1 1 0h2v-1l1-1q1-2 1-2v-1t1-1z"/>
  <path id="svg_871" fill="#bd3f3e" stroke="#bd3f3e" d="m476 422q0-1-1-2l-1-1v-1t-5 0-6 0h-2v-1q1-1 1-2l2-1h-1v-1h-1v-3h4v-4h-1q-1-1-1-2 0 0 1 0v-1h3q3 1 7 8 3 7 3 9-1 2-1 2-1 0-1 0z"/>
  <path id="svg_874" fill="#954c53" stroke="#954c53" d="m174 695q0-3 2-2 2 0 2 2-1 3-3 2-2 0-1-2z"/>
  <path id="svg_877" fill="#e8655f" stroke="#e8655f" d="m482 247q0 1 0 1l1 2v1h-1l-2-1h-2-1l-1-2q0-1 2-1 3-1 4 0z"/>
  <path id="svg_878" fill="#8a6262" stroke="#8a6262" d="m411 651h-1q-1-1-2-2l-1-2 2-1q2 0 3 2 0 2 0 2t-1 1z"/>
  <path id="svg_881" fill="#95585b" stroke="#95585b" d="m421 636q-2 0-2 1t-2 0 0-3q2-4 4-3 1 1 2 3 0 1-2 2z"/>
  <path id="svg_883" fill="#ce8281" stroke="#ce8281" d="m553 256l2 2q1 1 2 7t1 6q0 1 0 1h1v1q-1 1-2 1h-2-1v-2q0-1-1-2h-1t-1-2-2-2q-1-1-1-2v-1h1v1l2-2q3-1 2-4-1-2 0-2z"/>
  <path id="svg_885" fill="#993c3b" stroke="#993c3b" d="m118 187v-1h3l1 1 1 1h1v5l-1 1q-1 2-2 2-1 1-1 2 0 0 1 1v1h-1q-1 0-4-2h-2v-1h-1v-2h1v-2q0-2 2-4l2-2z"/>
  <path id="svg_886" fill="#a33433" stroke="#a33433" d="m166 375h2v1h2l1 1 1 1h2v6l-1 1v1h-3q-3 0-4-3l-1-3v-1q1-1 1-1 0-1 0-2h-1t1-1z"/>
  <path id="svg_887" fill="#d03c38" stroke="#d03c38" d="m249 402h2l-3 4q-4 5-2 8t3 4q1 0-1 1-1 1-2 1t-2 0q-2 1-3 1-1 1-2-1l-1-2-1 1h-1v-2h2v-3q0-2 0-5l-1-3q1 0 1 0v1h1v1h1q1 0 2-2v-2h1l1 1q2 0 2-3 0-2 1-1t2 1z"/>
  <path id="svg_890" fill="#a74044" stroke="#a74044" d="m216 736h2v7h-1v1h-5v-1l-1-2v-2h1q0-1 1-2t3-1z"/>
  <path id="svg_891" fill="#e8a5a3" stroke="#e8a5a3" d="m470 241h1v1h-1v2h1v1h1v3h-4v-1h-1v-1h-1l-2 1h-1v-1q-1 0 0-2v-1h1v-1q0-1 1 0 0 1 1 2 2 0 2-1 1-1 2-2z"/>
  <path id="svg_892" fill="#8e2c2b" stroke="#8e2c2b" d="m215 174l2-2h3l1 2q1 1 1 4t0 4v2h2v2l-1 1-1 1q-1 0-2 0-2 0-3-1-1-2-1-3l-1-2q-1-1-1-1v-1q0-2 0-3t1-3z"/>
 </g>
</svg>
